<?xml version="1.0" standalone="no"?>
<!DOCTYPE svg PUBLIC "-//W3C//DTD SVG 1.1//EN"
"http://www.w3.org/Graphics/SVG/1.1/DTD/svg11.dtd">
<svg height="600" version="1.1" width="1000" xmlns="http://www.w3.org/2000/svg"><g><rect fill="#f9f9f9" height="600" width="1000" x="0" y="0" /><g transform="translate(50 50)"><g transform="translate(32 0)"><text fill="#333" font-family="Monaco" font-size="16" x="0" y="0">Porcentagem de erro da predição</text></g><g transform="translate(0 20)"><g transform="translate(32 0)"><g class="axis bottom"><g class="tick"><line stroke="#eee" stroke-width="1" x1="108.5" x2="108.5" y1="0" y2="462.0" /><text dy="1em" fill="#9c9c9c" font-family="Monaco" text-anchor="middle" x="108.5" y="466.0">Tipo</text></g><g class="tick"><line stroke="#eee" stroke-width="1" x1="325.5" x2="325.5" y1="0" y2="462.0" /><text dy="1em" fill="#9c9c9c" font-family="Monaco" text-anchor="middle" x="325.5" y="466.0">Orgão Responsável</text></g><g class="tick"><line stroke="#eee" stroke-width="1" x1="542.5" x2="542.5" y1="0" y2="462.0" /><text dy="1em" fill="#9c9c9c" font-family="Monaco" text-anchor="middle" x="542.5" y="466.0">Estágio</text></g><g class="tick"><line stroke="#eee" stroke-width="1" x1="759.5" x2="759.5" y1="0" y2="462.0" /><text dy="1em" fill="#9c9c9c" font-family="Monaco" text-anchor="middle" x="759.5" y="466.0">Unidade Federativa</text></g></g><g class="axis left"><g class="tick"><line stroke="#eee" stroke-width="1" x1="-4" x2="868.0" y1="343.5" y2="343.5" /><text dy="0.32em" fill="#9c9c9c" font-family="Monaco" text-anchor="end" x="-8" y="343.5">25</text></g><g class="tick"><line stroke="#eee" stroke-width="1" x1="-4" x2="868.0" y1="229.0" y2="229.0" /><text dy="0.32em" fill="#9c9c9c" font-family="Monaco" text-anchor="end" x="-8" y="229.0">50</text></g><g class="tick"><line stroke="#eee" stroke-width="1" x1="-4" x2="868.0" y1="114.5" y2="114.5" /><text dy="0.32em" fill="#9c9c9c" font-family="Monaco" text-anchor="end" x="-8" y="114.5">75</text></g><g class="tick"><line stroke="#eee" stroke-width="1" x1="-4" x2="868.0" y1="0" y2="0" /><text dy="0.32em" fill="#9c9c9c" font-family="Monaco" text-anchor="end" x="-8" y="0">100</text></g><g class="tick"><line stroke="#a8a8a8" stroke-width="1" x1="-4" x2="868.0" y1="458" y2="458" /><text dy="0.32em" fill="#9c9c9c" font-family="Monaco" text-anchor="end" x="-8" y="458">0</text></g></g><g><g class="series columns"><rect fill="#265b6a" height="0" width="195.4" x="10.85" y="458" /><rect fill="#265b6a" height="12.8" width="195.4" x="227.8" y="445.2" /><rect fill="#265b6a" height="203.0" width="195.4" x="444.8" y="255.0" /><rect fill="#265b6a" height="378.1" width="195.4" x="661.8" y="79.9" /></g></g></g></g></g></g></svg>