<?xml version="1.0" standalone="no"?>
<!DOCTYPE svg PUBLIC "-//W3C//DTD SVG 1.1//EN"
"http://www.w3.org/Graphics/SVG/1.1/DTD/svg11.dtd">
<svg height="600" version="1.1" width="1000" xmlns="http://www.w3.org/2000/svg"><g><rect fill="#f9f9f9" height="600" width="1000" x="0" y="0" /><g transform="translate(50 50)"><g transform="translate(24 0)"><text fill="#333" font-family="Monaco" font-size="16" x="0" y="0">Porcentagem de erro da predição</text></g><g transform="translate(0 20)"><g transform="translate(24 0)"><g class="axis bottom"><g class="tick"><line stroke="#eee" stroke-width="1" x1="109.5" x2="109.5" y1="0" y2="462.0" /><text dy="1em" fill="#9c9c9c" font-family="Monaco" text-anchor="middle" x="109.5" y="466.0">Tipo</text></g><g class="tick"><line stroke="#eee" stroke-width="1" x1="328.5" x2="328.5" y1="0" y2="462.0" /><text dy="1em" fill="#9c9c9c" font-family="Monaco" text-anchor="middle" x="328.5" y="466.0">Orgão Responsável</text></g><g class="tick"><line stroke="#eee" stroke-width="1" x1="547.5" x2="547.5" y1="0" y2="462.0" /><text dy="1em" fill="#9c9c9c" font-family="Monaco" text-anchor="middle" x="547.5" y="466.0">Estágio</text></g><g class="tick"><line stroke="#eee" stroke-width="1" x1="766.5" x2="766.5" y1="0" y2="462.0" /><text dy="1em" fill="#9c9c9c" font-family="Monaco" text-anchor="middle" x="766.5" y="466.0">Unidade Federativa</text></g></g><g class="axis left"><g class="tick"><line stroke="#eee" stroke-width="1" x1="-4" x2="876.0" y1="343.5" y2="343.5" /><text dy="0.32em" fill="#9c9c9c" font-family="Monaco" text-anchor="end" x="-8" y="343.5">20</text></g><g class="tick"><line stroke="#eee" stroke-width="1" x1="-4" x2="876.0" y1="229.0" y2="229.0" /><text dy="0.32em" fill="#9c9c9c" font-family="Monaco" text-anchor="end" x="-8" y="229.0">40</text></g><g class="tick"><line stroke="#eee" stroke-width="1" x1="-4" x2="876.0" y1="114.5" y2="114.5" /><text dy="0.32em" fill="#9c9c9c" font-family="Monaco" text-anchor="end" x="-8" y="114.5">60</text></g><g class="tick"><line stroke="#eee" stroke-width="1" x1="-4" x2="876.0" y1="0" y2="0" /><text dy="0.32em" fill="#9c9c9c" font-family="Monaco" text-anchor="end" x="-8" y="0">80</text></g><g class="tick"><line stroke="#a8a8a8" stroke-width="1" x1="-4" x2="876.0" y1="458" y2="458" /><text dy="0.32em" fill="#9c9c9c" font-family="Monaco" text-anchor="end" x="-8" y="458">0</text></g></g><g><g class="series columns"><rect fill="#265b6a" height="0" width="197.0" x="10.95" y="458" /><rect fill="#265b6a" height="20.6" width="197.0" x="230.0" y="437.4" /><rect fill="#265b6a" height="273.8" width="197.0" x="449.0" y="184.2" /><rect fill="#265b6a" height="442.4" width="197.0" x="668.0" y="15.6" /></g></g></g></g></g></g></svg>