<?xml version="1.0" standalone="no"?>
<!DOCTYPE svg PUBLIC "-//W3C//DTD SVG 1.1//EN"
"http://www.w3.org/Graphics/SVG/1.1/DTD/svg11.dtd">
<svg height="1600" version="1.1" width="1200" xmlns="http://www.w3.org/2000/svg"><g><rect fill="#f9f9f9" height="1600" width="1200" x="0" y="0" /><g transform="translate(60 60)"><g transform="translate(32 0)"><text fill="#333" font-family="Monaco" font-size="16" x="0" y="0">Obras por estagio</text></g><g transform="translate(0 20)"><g transform="translate(32 0)"><g class="axis bottom"><g class="tick"><line stroke="#eee" stroke-width="1" x1="87.35" x2="87.35" y1="0" y2="1442.0" /><text dy="1em" fill="#9c9c9c" font-family="Monaco" text-anchor="middle" x="87.35" y="1446.0">Em execução</text></g><g class="tick"><line stroke="#eee" stroke-width="1" x1="262.0" x2="262.0" y1="0" y2="1442.0" /><text dy="1em" fill="#9c9c9c" font-family="Monaco" text-anchor="middle" x="262.0" y="1446.0">Em licitação de projeto</text></g><g class="tick"><line stroke="#eee" stroke-width="1" x1="436.8" x2="436.8" y1="0" y2="1442.0" /><text dy="1em" fill="#9c9c9c" font-family="Monaco" text-anchor="middle" x="436.8" y="1446.0">Ação preparatória</text></g><g class="tick"><line stroke="#eee" stroke-width="1" x1="611.4" x2="611.4" y1="0" y2="1442.0" /><text dy="1em" fill="#9c9c9c" font-family="Monaco" text-anchor="middle" x="611.4" y="1446.0">Em obras</text></g><g class="tick"><line stroke="#eee" stroke-width="1" x1="786.2" x2="786.2" y1="0" y2="1442.0" /><text dy="1em" fill="#9c9c9c" font-family="Monaco" text-anchor="middle" x="786.2" y="1446.0">Concluído</text></g><g class="tick"><line stroke="#eee" stroke-width="1" x1="960.8" x2="960.8" y1="0" y2="1442.0" /><text dy="1em" fill="#9c9c9c" font-family="Monaco" text-anchor="middle" x="960.8" y="1446.0">Em licitação de obra</text></g></g><g class="axis left"><g class="tick"><line stroke="#eee" stroke-width="1" x1="-4" x2="1048.0" y1="958.7" y2="958.7" /><text dy="0.32em" fill="#9c9c9c" font-family="Monaco" text-anchor="end" x="-8" y="958.7">100</text></g><g class="tick"><line stroke="#eee" stroke-width="1" x1="-4" x2="1048.0" y1="479.3" y2="479.3" /><text dy="0.32em" fill="#9c9c9c" font-family="Monaco" text-anchor="end" x="-8" y="479.3">200</text></g><g class="tick"><line stroke="#eee" stroke-width="1" x1="-4" x2="1048.0" y1="0" y2="0" /><text dy="0.32em" fill="#9c9c9c" font-family="Monaco" text-anchor="end" x="-8" y="0">300</text></g><g class="tick"><line stroke="#a8a8a8" stroke-width="1" x1="-4" x2="1048.0" y1="1438" y2="1438" /><text dy="0.32em" fill="#9c9c9c" font-family="Monaco" text-anchor="end" x="-8" y="1438">0</text></g></g><g><g class="series columns"><rect fill="#265b6a" height="1198" width="157.3" x="8.735" y="240" /><rect fill="#265b6a" height="81" width="157.3" x="183.4" y="1357" /><rect fill="#265b6a" height="469.8" width="157.3" x="358.1" y="968.2" /><rect fill="#265b6a" height="618.3" width="157.3" x="532.8" y="819.7" /><rect fill="#265b6a" height="158" width="157.3" x="707.5" y="1280" /><rect fill="#265b6a" height="38" width="156.8" x="882.2" y="1400" /></g></g></g></g></g></g></svg>