<?xml version="1.0" standalone="no"?>
<!DOCTYPE svg PUBLIC "-//W3C//DTD SVG 1.1//EN"
"http://www.w3.org/Graphics/SVG/1.1/DTD/svg11.dtd">
<svg height="1600" version="1.1" width="900" xmlns="http://www.w3.org/2000/svg"><g><rect fill="#f9f9f9" height="1600" width="900" x="0" y="0" /><g transform="translate(45 45)"><g transform="translate(232 0)"><text fill="#333" font-family="Monaco" font-size="16" x="0" y="0">Obras por UF e estagio</text></g><g transform="translate(0 20)"><g transform="translate(232 0)"><g class="axis bottom"><g class="tick"><line stroke="#eee" stroke-width="1" x1="192.6" x2="192.6" y1="0" y2="1472.0" /><text dy="1em" fill="#9c9c9c" font-family="Monaco" text-anchor="middle" x="192.6" y="1476.0">25</text></g><g class="tick"><line stroke="#eee" stroke-width="1" x1="385.4" x2="385.4" y1="0" y2="1472.0" /><text dy="1em" fill="#9c9c9c" font-family="Monaco" text-anchor="middle" x="385.4" y="1476.0">50</text></g><g class="tick"><line stroke="#eee" stroke-width="1" x1="578" x2="578" y1="0" y2="1472.0" /><text dy="1em" fill="#9c9c9c" font-family="Monaco" text-anchor="middle" x="578" y="1476.0">75</text></g><g class="tick"><line stroke="#a8a8a8" stroke-width="1" x1="0" x2="0" y1="0" y2="1472.0" /><text dy="1em" fill="#9c9c9c" font-family="Monaco" text-anchor="middle" x="0" y="1476.0">0</text></g></g><g class="axis left"><g class="tick"><line stroke="#eee" stroke-width="1" x1="-4" x2="578.0" y1="1459" y2="1459" /><text dy="0.32em" fill="#9c9c9c" font-family="Monaco" text-anchor="end" x="-8" y="1459">SP - Concluído</text></g><g class="tick"><line stroke="#eee" stroke-width="1" x1="-4" x2="578.0" y1="1442" y2="1442" /><text dy="0.32em" fill="#9c9c9c" font-family="Monaco" text-anchor="end" x="-8" y="1442">SP - Em licitação de obra</text></g><g class="tick"><line stroke="#eee" stroke-width="1" x1="-4" x2="578.0" y1="1424" y2="1424" /><text dy="0.32em" fill="#9c9c9c" font-family="Monaco" text-anchor="end" x="-8" y="1424">SP - Em obras</text></g><g class="tick"><line stroke="#eee" stroke-width="1" x1="-4" x2="578.0" y1="1407" y2="1407" /><text dy="0.32em" fill="#9c9c9c" font-family="Monaco" text-anchor="end" x="-8" y="1407">SP - Ação preparatória</text></g><g class="tick"><line stroke="#eee" stroke-width="1" x1="-4" x2="578.0" y1="1390" y2="1390" /><text dy="0.32em" fill="#9c9c9c" font-family="Monaco" text-anchor="end" x="-8" y="1390">SP - Em execução</text></g><g class="tick"><line stroke="#eee" stroke-width="1" x1="-4" x2="578.0" y1="1373" y2="1373" /><text dy="0.32em" fill="#9c9c9c" font-family="Monaco" text-anchor="end" x="-8" y="1373">SE - Em obras</text></g><g class="tick"><line stroke="#eee" stroke-width="1" x1="-4" x2="578.0" y1="1355" y2="1355" /><text dy="0.32em" fill="#9c9c9c" font-family="Monaco" text-anchor="end" x="-8" y="1355">SE - Em execução</text></g><g class="tick"><line stroke="#eee" stroke-width="1" x1="-4" x2="578.0" y1="1338" y2="1338" /><text dy="0.32em" fill="#9c9c9c" font-family="Monaco" text-anchor="end" x="-8" y="1338">SE - Ação preparatória</text></g><g class="tick"><line stroke="#eee" stroke-width="1" x1="-4" x2="578.0" y1="1321" y2="1321" /><text dy="0.32em" fill="#9c9c9c" font-family="Monaco" text-anchor="end" x="-8" y="1321">SE - Em licitação de obra</text></g><g class="tick"><line stroke="#eee" stroke-width="1" x1="-4" x2="578.0" y1="1304" y2="1304" /><text dy="0.32em" fill="#9c9c9c" font-family="Monaco" text-anchor="end" x="-8" y="1304">SC - Ação preparatória</text></g><g class="tick"><line stroke="#eee" stroke-width="1" x1="-4" x2="578.0" y1="1286" y2="1286" /><text dy="0.32em" fill="#9c9c9c" font-family="Monaco" text-anchor="end" x="-8" y="1286">SC - Em execução</text></g><g class="tick"><line stroke="#eee" stroke-width="1" x1="-4" x2="578.0" y1="1269" y2="1269" /><text dy="0.32em" fill="#9c9c9c" font-family="Monaco" text-anchor="end" x="-8" y="1269">SC - Em obras</text></g><g class="tick"><line stroke="#eee" stroke-width="1" x1="-4" x2="578.0" y1="1252" y2="1252" /><text dy="0.32em" fill="#9c9c9c" font-family="Monaco" text-anchor="end" x="-8" y="1252">RS - Em licitação de projeto</text></g><g class="tick"><line stroke="#eee" stroke-width="1" x1="-4" x2="578.0" y1="1235" y2="1235" /><text dy="0.32em" fill="#9c9c9c" font-family="Monaco" text-anchor="end" x="-8" y="1235">RS - Ação preparatória</text></g><g class="tick"><line stroke="#eee" stroke-width="1" x1="-4" x2="578.0" y1="1217" y2="1217" /><text dy="0.32em" fill="#9c9c9c" font-family="Monaco" text-anchor="end" x="-8" y="1217">RS - Concluído</text></g><g class="tick"><line stroke="#eee" stroke-width="1" x1="-4" x2="578.0" y1="1200" y2="1200" /><text dy="0.32em" fill="#9c9c9c" font-family="Monaco" text-anchor="end" x="-8" y="1200">RS - Em obras</text></g><g class="tick"><line stroke="#eee" stroke-width="1" x1="-4" x2="578.0" y1="1183" y2="1183" /><text dy="0.32em" fill="#9c9c9c" font-family="Monaco" text-anchor="end" x="-8" y="1183">RS - Em execução</text></g><g class="tick"><line stroke="#eee" stroke-width="1" x1="-4" x2="578.0" y1="1165" y2="1165" /><text dy="0.32em" fill="#9c9c9c" font-family="Monaco" text-anchor="end" x="-8" y="1165">RN - Ação preparatória</text></g><g class="tick"><line stroke="#eee" stroke-width="1" x1="-4" x2="578.0" y1="1148" y2="1148" /><text dy="0.32em" fill="#9c9c9c" font-family="Monaco" text-anchor="end" x="-8" y="1148">RN - Em execução</text></g><g class="tick"><line stroke="#eee" stroke-width="1" x1="-4" x2="578.0" y1="1131" y2="1131" /><text dy="0.32em" fill="#9c9c9c" font-family="Monaco" text-anchor="end" x="-8" y="1131">RN - Em obras</text></g><g class="tick"><line stroke="#eee" stroke-width="1" x1="-4" x2="578.0" y1="1114" y2="1114" /><text dy="0.32em" fill="#9c9c9c" font-family="Monaco" text-anchor="end" x="-8" y="1114">RJ - Em execução</text></g><g class="tick"><line stroke="#eee" stroke-width="1" x1="-4" x2="578.0" y1="1096" y2="1096" /><text dy="0.32em" fill="#9c9c9c" font-family="Monaco" text-anchor="end" x="-8" y="1096">RJ - Em licitação de projeto</text></g><g class="tick"><line stroke="#eee" stroke-width="1" x1="-4" x2="578.0" y1="1079" y2="1079" /><text dy="0.32em" fill="#9c9c9c" font-family="Monaco" text-anchor="end" x="-8" y="1079">RJ - Ação preparatória</text></g><g class="tick"><line stroke="#eee" stroke-width="1" x1="-4" x2="578.0" y1="1062" y2="1062" /><text dy="0.32em" fill="#9c9c9c" font-family="Monaco" text-anchor="end" x="-8" y="1062">RJ - Concluído</text></g><g class="tick"><line stroke="#eee" stroke-width="1" x1="-4" x2="578.0" y1="1045" y2="1045" /><text dy="0.32em" fill="#9c9c9c" font-family="Monaco" text-anchor="end" x="-8" y="1045">RJ - Em obras</text></g><g class="tick"><line stroke="#eee" stroke-width="1" x1="-4" x2="578.0" y1="1027" y2="1027" /><text dy="0.32em" fill="#9c9c9c" font-family="Monaco" text-anchor="end" x="-8" y="1027">PR - Ação preparatória</text></g><g class="tick"><line stroke="#eee" stroke-width="1" x1="-4" x2="578.0" y1="1010" y2="1010" /><text dy="0.32em" fill="#9c9c9c" font-family="Monaco" text-anchor="end" x="-8" y="1010">PR - Em obras</text></g><g class="tick"><line stroke="#eee" stroke-width="1" x1="-4" x2="578.0" y1="993.4" y2="993.4" /><text dy="0.32em" fill="#9c9c9c" font-family="Monaco" text-anchor="end" x="-8" y="993.4">PR - Em execução</text></g><g class="tick"><line stroke="#eee" stroke-width="1" x1="-4" x2="578.0" y1="975.8" y2="975.8" /><text dy="0.32em" fill="#9c9c9c" font-family="Monaco" text-anchor="end" x="-8" y="975.8">PI - Em execução</text></g><g class="tick"><line stroke="#eee" stroke-width="1" x1="-4" x2="578.0" y1="958.6" y2="958.6" /><text dy="0.32em" fill="#9c9c9c" font-family="Monaco" text-anchor="end" x="-8" y="958.6">PI - Ação preparatória</text></g><g class="tick"><line stroke="#eee" stroke-width="1" x1="-4" x2="578.0" y1="941.3" y2="941.3" /><text dy="0.32em" fill="#9c9c9c" font-family="Monaco" text-anchor="end" x="-8" y="941.3">PE - Em execução</text></g><g class="tick"><line stroke="#eee" stroke-width="1" x1="-4" x2="578.0" y1="924.0" y2="924.0" /><text dy="0.32em" fill="#9c9c9c" font-family="Monaco" text-anchor="end" x="-8" y="924.0">PE - Ação preparatória</text></g><g class="tick"><line stroke="#eee" stroke-width="1" x1="-4" x2="578.0" y1="906.8" y2="906.8" /><text dy="0.32em" fill="#9c9c9c" font-family="Monaco" text-anchor="end" x="-8" y="906.8">PE - Concluído</text></g><g class="tick"><line stroke="#eee" stroke-width="1" x1="-4" x2="578.0" y1="889.5" y2="889.5" /><text dy="0.32em" fill="#9c9c9c" font-family="Monaco" text-anchor="end" x="-8" y="889.5">PE - Em licitação de projeto</text></g><g class="tick"><line stroke="#eee" stroke-width="1" x1="-4" x2="578.0" y1="872.2" y2="872.2" /><text dy="0.32em" fill="#9c9c9c" font-family="Monaco" text-anchor="end" x="-8" y="872.2">PE - Em obras</text></g><g class="tick"><line stroke="#eee" stroke-width="1" x1="-4" x2="578.0" y1="855.0" y2="855.0" /><text dy="0.32em" fill="#9c9c9c" font-family="Monaco" text-anchor="end" x="-8" y="855.0">PB - Em licitação de obra</text></g><g class="tick"><line stroke="#eee" stroke-width="1" x1="-4" x2="578.0" y1="837.7" y2="837.7" /><text dy="0.32em" fill="#9c9c9c" font-family="Monaco" text-anchor="end" x="-8" y="837.7">PB - Concluído</text></g><g class="tick"><line stroke="#eee" stroke-width="1" x1="-4" x2="578.0" y1="820.4" y2="820.4" /><text dy="0.32em" fill="#9c9c9c" font-family="Monaco" text-anchor="end" x="-8" y="820.4">PB - Em execução</text></g><g class="tick"><line stroke="#eee" stroke-width="1" x1="-4" x2="578.0" y1="803.1" y2="803.1" /><text dy="0.32em" fill="#9c9c9c" font-family="Monaco" text-anchor="end" x="-8" y="803.1">PB - Em obras</text></g><g class="tick"><line stroke="#eee" stroke-width="1" x1="-4" x2="578.0" y1="785.9" y2="785.9" /><text dy="0.32em" fill="#9c9c9c" font-family="Monaco" text-anchor="end" x="-8" y="785.9">PB - Ação preparatória</text></g><g class="tick"><line stroke="#eee" stroke-width="1" x1="-4" x2="578.0" y1="768.6" y2="768.6" /><text dy="0.32em" fill="#9c9c9c" font-family="Monaco" text-anchor="end" x="-8" y="768.6">PA - Em licitação de projeto</text></g><g class="tick"><line stroke="#eee" stroke-width="1" x1="-4" x2="578.0" y1="751.3" y2="751.3" /><text dy="0.32em" fill="#9c9c9c" font-family="Monaco" text-anchor="end" x="-8" y="751.3">PA - Em obras</text></g><g class="tick"><line stroke="#eee" stroke-width="1" x1="-4" x2="578.0" y1="734.1" y2="734.1" /><text dy="0.32em" fill="#9c9c9c" font-family="Monaco" text-anchor="end" x="-8" y="734.1">PA - Ação preparatória</text></g><g class="tick"><line stroke="#eee" stroke-width="1" x1="-4" x2="578.0" y1="716.8" y2="716.8" /><text dy="0.32em" fill="#9c9c9c" font-family="Monaco" text-anchor="end" x="-8" y="716.8">PA - Concluído</text></g><g class="tick"><line stroke="#eee" stroke-width="1" x1="-4" x2="578.0" y1="699.5" y2="699.5" /><text dy="0.32em" fill="#9c9c9c" font-family="Monaco" text-anchor="end" x="-8" y="699.5">PA - Em execução</text></g><g class="tick"><line stroke="#eee" stroke-width="1" x1="-4" x2="578.0" y1="682.2" y2="682.2" /><text dy="0.32em" fill="#9c9c9c" font-family="Monaco" text-anchor="end" x="-8" y="682.2">MT - Em execução</text></g><g class="tick"><line stroke="#eee" stroke-width="1" x1="-4" x2="578.0" y1="665.0" y2="665.0" /><text dy="0.32em" fill="#9c9c9c" font-family="Monaco" text-anchor="end" x="-8" y="665.0">MT - Em obras</text></g><g class="tick"><line stroke="#eee" stroke-width="1" x1="-4" x2="578.0" y1="647.7" y2="647.7" /><text dy="0.32em" fill="#9c9c9c" font-family="Monaco" text-anchor="end" x="-8" y="647.7">MT - Em licitação de projeto</text></g><g class="tick"><line stroke="#eee" stroke-width="1" x1="-4" x2="578.0" y1="630.4" y2="630.4" /><text dy="0.32em" fill="#9c9c9c" font-family="Monaco" text-anchor="end" x="-8" y="630.4">MT - Ação preparatória</text></g><g class="tick"><line stroke="#eee" stroke-width="1" x1="-4" x2="578.0" y1="613.2" y2="613.2" /><text dy="0.32em" fill="#9c9c9c" font-family="Monaco" text-anchor="end" x="-8" y="613.2">MS - Em obras</text></g><g class="tick"><line stroke="#eee" stroke-width="1" x1="-4" x2="578.0" y1="595.9" y2="595.9" /><text dy="0.32em" fill="#9c9c9c" font-family="Monaco" text-anchor="end" x="-8" y="595.9">MS - Ação preparatória</text></g><g class="tick"><line stroke="#eee" stroke-width="1" x1="-4" x2="578.0" y1="578.6" y2="578.6" /><text dy="0.32em" fill="#9c9c9c" font-family="Monaco" text-anchor="end" x="-8" y="578.6">MS - Em execução</text></g><g class="tick"><line stroke="#eee" stroke-width="1" x1="-4" x2="578.0" y1="561.4" y2="561.4" /><text dy="0.32em" fill="#9c9c9c" font-family="Monaco" text-anchor="end" x="-8" y="561.4">MS - Concluído</text></g><g class="tick"><line stroke="#eee" stroke-width="1" x1="-4" x2="578.0" y1="544.1" y2="544.1" /><text dy="0.32em" fill="#9c9c9c" font-family="Monaco" text-anchor="end" x="-8" y="544.1">MG - Ação preparatória</text></g><g class="tick"><line stroke="#eee" stroke-width="1" x1="-4" x2="578.0" y1="526.8" y2="526.8" /><text dy="0.32em" fill="#9c9c9c" font-family="Monaco" text-anchor="end" x="-8" y="526.8">MG - Em execução</text></g><g class="tick"><line stroke="#eee" stroke-width="1" x1="-4" x2="578.0" y1="509.6" y2="509.6" /><text dy="0.32em" fill="#9c9c9c" font-family="Monaco" text-anchor="end" x="-8" y="509.6">MG - Concluído</text></g><g class="tick"><line stroke="#eee" stroke-width="1" x1="-4" x2="578.0" y1="492.3" y2="492.3" /><text dy="0.32em" fill="#9c9c9c" font-family="Monaco" text-anchor="end" x="-8" y="492.3">MG - Em licitação de projeto</text></g><g class="tick"><line stroke="#eee" stroke-width="1" x1="-4" x2="578.0" y1="475.0" y2="475.0" /><text dy="0.32em" fill="#9c9c9c" font-family="Monaco" text-anchor="end" x="-8" y="475.0">MG - Em obras</text></g><g class="tick"><line stroke="#eee" stroke-width="1" x1="-4" x2="578.0" y1="457.4" y2="457.4" /><text dy="0.32em" fill="#9c9c9c" font-family="Monaco" text-anchor="end" x="-8" y="457.4">MA - Concluído</text></g><g class="tick"><line stroke="#eee" stroke-width="1" x1="-4" x2="578.0" y1="440.4" y2="440.4" /><text dy="0.32em" fill="#9c9c9c" font-family="Monaco" text-anchor="end" x="-8" y="440.4">MA - Em execução</text></g><g class="tick"><line stroke="#eee" stroke-width="1" x1="-4" x2="578.0" y1="423.4" y2="423.4" /><text dy="0.32em" fill="#9c9c9c" font-family="Monaco" text-anchor="end" x="-8" y="423.4">MA - Em obras</text></g><g class="tick"><line stroke="#eee" stroke-width="1" x1="-4" x2="578.0" y1="406.4" y2="406.4" /><text dy="0.32em" fill="#9c9c9c" font-family="Monaco" text-anchor="end" x="-8" y="406.4">MA - Ação preparatória</text></g><g class="tick"><line stroke="#eee" stroke-width="1" x1="-4" x2="578.0" y1="388.4" y2="388.4" /><text dy="0.32em" fill="#9c9c9c" font-family="Monaco" text-anchor="end" x="-8" y="388.4">GO - Concluído</text></g><g class="tick"><line stroke="#eee" stroke-width="1" x1="-4" x2="578.0" y1="371.4" y2="371.4" /><text dy="0.32em" fill="#9c9c9c" font-family="Monaco" text-anchor="end" x="-8" y="371.4">GO - Em execução</text></g><g class="tick"><line stroke="#eee" stroke-width="1" x1="-4" x2="578.0" y1="354.4" y2="354.4" /><text dy="0.32em" fill="#9c9c9c" font-family="Monaco" text-anchor="end" x="-8" y="354.4">GO - Em obras</text></g><g class="tick"><line stroke="#eee" stroke-width="1" x1="-4" x2="578.0" y1="336.4" y2="336.4" /><text dy="0.32em" fill="#9c9c9c" font-family="Monaco" text-anchor="end" x="-8" y="336.4">ES - Em obras</text></g><g class="tick"><line stroke="#eee" stroke-width="1" x1="-4" x2="578.0" y1="319.4" y2="319.4" /><text dy="0.32em" fill="#9c9c9c" font-family="Monaco" text-anchor="end" x="-8" y="319.4">ES - Ação preparatória</text></g><g class="tick"><line stroke="#eee" stroke-width="1" x1="-4" x2="578.0" y1="302.4" y2="302.4" /><text dy="0.32em" fill="#9c9c9c" font-family="Monaco" text-anchor="end" x="-8" y="302.4">CE - Ação preparatória</text></g><g class="tick"><line stroke="#eee" stroke-width="1" x1="-4" x2="578.0" y1="285.4" y2="285.4" /><text dy="0.32em" fill="#9c9c9c" font-family="Monaco" text-anchor="end" x="-8" y="285.4">CE - Em execução</text></g><g class="tick"><line stroke="#eee" stroke-width="1" x1="-4" x2="578.0" y1="267.4" y2="267.4" /><text dy="0.32em" fill="#9c9c9c" font-family="Monaco" text-anchor="end" x="-8" y="267.4">CE - Em obras</text></g><g class="tick"><line stroke="#eee" stroke-width="1" x1="-4" x2="578.0" y1="250.4" y2="250.4" /><text dy="0.32em" fill="#9c9c9c" font-family="Monaco" text-anchor="end" x="-8" y="250.4">BA - Ação preparatória</text></g><g class="tick"><line stroke="#eee" stroke-width="1" x1="-4" x2="578.0" y1="233.4" y2="233.4" /><text dy="0.32em" fill="#9c9c9c" font-family="Monaco" text-anchor="end" x="-8" y="233.4">BA - Concluído</text></g><g class="tick"><line stroke="#eee" stroke-width="1" x1="-4" x2="578.0" y1="216.4" y2="216.4" /><text dy="0.32em" fill="#9c9c9c" font-family="Monaco" text-anchor="end" x="-8" y="216.4">BA - Em execução</text></g><g class="tick"><line stroke="#eee" stroke-width="1" x1="-4" x2="578.0" y1="198.4" y2="198.4" /><text dy="0.32em" fill="#9c9c9c" font-family="Monaco" text-anchor="end" x="-8" y="198.4">BA - Em obras</text></g><g class="tick"><line stroke="#eee" stroke-width="1" x1="-4" x2="578.0" y1="181.4" y2="181.4" /><text dy="0.32em" fill="#9c9c9c" font-family="Monaco" text-anchor="end" x="-8" y="181.4">AP - Em obras</text></g><g class="tick"><line stroke="#eee" stroke-width="1" x1="-4" x2="578.0" y1="164.4" y2="164.4" /><text dy="0.32em" fill="#9c9c9c" font-family="Monaco" text-anchor="end" x="-8" y="164.4">AM - Concluído</text></g><g class="tick"><line stroke="#eee" stroke-width="1" x1="-4" x2="578.0" y1="146.4" y2="146.4" /><text dy="0.32em" fill="#9c9c9c" font-family="Monaco" text-anchor="end" x="-8" y="146.4">AM - Ação preparatória</text></g><g class="tick"><line stroke="#eee" stroke-width="1" x1="-4" x2="578.0" y1="129.4" y2="129.4" /><text dy="0.32em" fill="#9c9c9c" font-family="Monaco" text-anchor="end" x="-8" y="129.4">AM - Em obras</text></g><g class="tick"><line stroke="#eee" stroke-width="1" x1="-4" x2="578.0" y1="112.4" y2="112.4" /><text dy="0.32em" fill="#9c9c9c" font-family="Monaco" text-anchor="end" x="-8" y="112.4">AM - Em execução</text></g><g class="tick"><line stroke="#eee" stroke-width="1" x1="-4" x2="578.0" y1="95.36" y2="95.36" /><text dy="0.32em" fill="#9c9c9c" font-family="Monaco" text-anchor="end" x="-8" y="95.36">AL - Em execução</text></g><g class="tick"><line stroke="#eee" stroke-width="1" x1="-4" x2="578.0" y1="77.36" y2="77.36" /><text dy="0.32em" fill="#9c9c9c" font-family="Monaco" text-anchor="end" x="-8" y="77.36">AL - Em obras</text></g><g class="tick"><line stroke="#eee" stroke-width="1" x1="-4" x2="578.0" y1="60.36" y2="60.36" /><text dy="0.32em" fill="#9c9c9c" font-family="Monaco" text-anchor="end" x="-8" y="60.36">AL - Em licitação de obra</text></g><g class="tick"><line stroke="#eee" stroke-width="1" x1="-4" x2="578.0" y1="43.36" y2="43.36" /><text dy="0.32em" fill="#9c9c9c" font-family="Monaco" text-anchor="end" x="-8" y="43.36">AL - Ação preparatória</text></g><g class="tick"><line stroke="#eee" stroke-width="1" x1="-4" x2="578.0" y1="26.36" y2="26.36" /><text dy="0.32em" fill="#9c9c9c" font-family="Monaco" text-anchor="end" x="-8" y="26.36">AL - Concluído</text></g><g class="tick"><line stroke="#eee" stroke-width="1" x1="-4" x2="578.0" y1="8.365" y2="8.365" /><text dy="0.32em" fill="#9c9c9c" font-family="Monaco" text-anchor="end" x="-8" y="8.365">AC - Em obras</text></g></g><g><g class="series bars"><rect fill="#265b6a" height="15" width="23.12" x="0" y="1452" /><rect fill="#265b6a" height="16" width="7.705" x="0" y="1434" /><rect fill="#265b6a" height="15" width="61.67" x="0" y="1417" /><rect fill="#265b6a" height="15" width="30.82" x="0" y="1400" /><rect fill="#265b6a" height="15" width="53.94" x="0" y="1383" /><rect fill="#265b6a" height="16" width="30.82" x="0" y="1365" /><rect fill="#265b6a" height="15" width="46.24" x="0" y="1348" /><rect fill="#265b6a" height="15" width="15.42" x="0" y="1331" /><rect fill="#265b6a" height="15" width="15.42" x="0" y="1314" /><rect fill="#265b6a" height="16" width="30.82" x="0" y="1296" /><rect fill="#265b6a" height="15" width="69.36" x="0" y="1279" /><rect fill="#265b6a" height="15" width="53.94" x="0" y="1262" /><rect fill="#265b6a" height="15" width="23.12" x="0" y="1245" /><rect fill="#265b6a" height="16" width="61.67" x="0" y="1227" /><rect fill="#265b6a" height="15" width="30.82" x="0" y="1210" /><rect fill="#265b6a" height="15" width="53.94" x="0" y="1193" /><rect fill="#265b6a" height="16" width="138.7" x="0" y="1175" /><rect fill="#265b6a" height="15" width="30.82" x="0" y="1158" /><rect fill="#265b6a" height="15" width="46.24" x="0" y="1141" /><rect fill="#265b6a" height="15" width="7.705" x="0" y="1124" /><rect fill="#265b6a" height="16" width="100.2" x="0" y="1106" /><rect fill="#265b6a" height="15" width="7.705" x="0" y="1089" /><rect fill="#265b6a" height="15" width="38.54" x="0" y="1072" /><rect fill="#265b6a" height="15" width="7.705" x="0" y="1055" /><rect fill="#265b6a" height="16" width="61.67" x="0" y="1037" /><rect fill="#265b6a" height="15" width="7.705" x="0" y="1020" /><rect fill="#265b6a" height="15" width="46.24" x="0" y="1003" /><rect fill="#265b6a" height="15.7" width="69.36" x="0" y="985.3" /><rect fill="#265b6a" height="15.4" width="15.42" x="0" y="968.1" /><rect fill="#265b6a" height="15.5" width="46.24" x="0" y="950.8" /><rect fill="#265b6a" height="15.5" width="69.36" x="0" y="933.5" /><rect fill="#265b6a" height="15.4" width="77.05" x="0" y="916.3" /><rect fill="#265b6a" height="15.5" width="7.705" x="0" y="899.0" /><rect fill="#265b6a" height="15.5" width="30.82" x="0" y="881.7" /><rect fill="#265b6a" height="15.4" width="53.94" x="0" y="864.5" /><rect fill="#265b6a" height="15.5" width="15.42" x="0" y="847.2" /><rect fill="#265b6a" height="15.5" width="7.705" x="0" y="829.9" /><rect fill="#265b6a" height="15.5" width="30.82" x="0" y="812.6" /><rect fill="#265b6a" height="15.4" width="15.42" x="0" y="795.4" /><rect fill="#265b6a" height="15.5" width="30.82" x="0" y="778.1" /><rect fill="#265b6a" height="15.5" width="46.24" x="0" y="760.8" /><rect fill="#265b6a" height="15.4" width="23.12" x="0" y="743.6" /><rect fill="#265b6a" height="15.5" width="30.82" x="0" y="726.3" /><rect fill="#265b6a" height="15.5" width="23.12" x="0" y="709.0" /><rect fill="#265b6a" height="15.5" width="30.82" x="0" y="691.7" /><rect fill="#265b6a" height="15.4" width="7.705" x="0" y="674.5" /><rect fill="#265b6a" height="15.5" width="84.79" x="0" y="657.2" /><rect fill="#265b6a" height="15.5" width="7.705" x="0" y="639.9" /><rect fill="#265b6a" height="15.4" width="30.82" x="0" y="622.7" /><rect fill="#265b6a" height="15.5" width="15.42" x="0" y="605.4" /><rect fill="#265b6a" height="15.5" width="7.705" x="0" y="588.1" /><rect fill="#265b6a" height="15.4" width="46.24" x="0" y="570.9" /><rect fill="#265b6a" height="15.5" width="15.42" x="0" y="553.6" /><rect fill="#265b6a" height="15.5" width="92.48" x="0" y="536.3" /><rect fill="#265b6a" height="15.4" width="531.8" x="0" y="519.1" /><rect fill="#265b6a" height="15.5" width="7.705" x="0" y="501.8" /><rect fill="#265b6a" height="15.5" width="15.42" x="0" y="484.5" /><rect fill="#265b6a" height="15.8" width="138.7" x="0" y="466.9" /><rect fill="#265b6a" height="15.2" width="30.82" x="0" y="449.9" /><rect fill="#265b6a" height="15.2" width="262.0" x="0" y="432.9" /><rect fill="#265b6a" height="15.2" width="61.67" x="0" y="415.9" /><rect fill="#265b6a" height="16.2" width="7.705" x="0" y="397.9" /><rect fill="#265b6a" height="15.2" width="30.82" x="0" y="380.9" /><rect fill="#265b6a" height="15.2" width="23.12" x="0" y="363.9" /><rect fill="#265b6a" height="16.2" width="38.54" x="0" y="345.9" /><rect fill="#265b6a" height="15.2" width="7.705" x="0" y="328.9" /><rect fill="#265b6a" height="15.2" width="23.12" x="0" y="311.9" /><rect fill="#265b6a" height="15.2" width="30.82" x="0" y="294.9" /><rect fill="#265b6a" height="16.2" width="123.3" x="0" y="276.9" /><rect fill="#265b6a" height="15.2" width="38.54" x="0" y="259.9" /><rect fill="#265b6a" height="15.2" width="53.94" x="0" y="242.9" /><rect fill="#265b6a" height="15.2" width="7.705" x="0" y="225.9" /><rect fill="#265b6a" height="16.2" width="223.5" x="0" y="207.9" /><rect fill="#265b6a" height="15.2" width="92.48" x="0" y="190.9" /><rect fill="#265b6a" height="15.2" width="7.705" x="0" y="173.9" /><rect fill="#265b6a" height="16.2" width="38.54" x="0" y="155.9" /><rect fill="#265b6a" height="15.2" width="30.82" x="0" y="138.9" /><rect fill="#265b6a" height="15.2" width="38.54" x="0" y="121.9" /><rect fill="#265b6a" height="15.2" width="23.12" x="0" y="104.9" /><rect fill="#265b6a" height="16.24" width="15.42" x="0" y="86.86" /><rect fill="#265b6a" height="15.28" width="46.24" x="0" y="69.86" /><rect fill="#265b6a" height="15.28" width="23.12" x="0" y="52.86" /><rect fill="#265b6a" height="15.28" width="77.05" x="0" y="35.86" /><rect fill="#265b6a" height="16.28" width="23.12" x="0" y="17.86" /><rect fill="#265b6a" height="15.28" width="15.42" x="0" y="0.8635" /></g></g></g></g></g></g></svg>