<?xml version="1.0" standalone="no"?>
<!DOCTYPE svg PUBLIC "-//W3C//DTD SVG 1.1//EN"
"http://www.w3.org/Graphics/SVG/1.1/DTD/svg11.dtd">
<svg height="600" version="1.1" width="1000" xmlns="http://www.w3.org/2000/svg"><g><rect fill="#ffffff" height="600" width="1000" x="0" y="0" /><g transform="translate(50 50)"><g transform="translate(32 0)"><text fill="#000000" font-family="Monaco" font-size="25" x="0" y="0">Obras por estágio</text></g><g transform="translate(0 20)"><g transform="translate(32 0)"><g class="axis bottom"><g class="tick"><line stroke="#000000" stroke-width="1" x1="72.35" x2="72.35" y1="0" y2="462.0" /><text dy="1em" fill="#000000" font-family="Monaco" text-anchor="middle" x="72.35" y="466.0">Em licitação de obra</text></g><g class="tick"><line stroke="#000000" stroke-width="1" x1="217.0" x2="217.0" y1="0" y2="462.0" /><text dy="1em" fill="#000000" font-family="Monaco" text-anchor="middle" x="217.0" y="466.0">Em licitação de projeto</text></g><g class="tick"><line stroke="#000000" stroke-width="1" x1="361.8" x2="361.8" y1="0" y2="462.0" /><text dy="1em" fill="#000000" font-family="Monaco" text-anchor="middle" x="361.8" y="466.0">Concluído</text></g><g class="tick"><line stroke="#000000" stroke-width="1" x1="506.4" x2="506.4" y1="0" y2="462.0" /><text dy="1em" fill="#000000" font-family="Monaco" text-anchor="middle" x="506.4" y="466.0">Ação preparatória</text></g><g class="tick"><line stroke="#000000" stroke-width="1" x1="651.2" x2="651.2" y1="0" y2="462.0" /><text dy="1em" fill="#000000" font-family="Monaco" text-anchor="middle" x="651.2" y="466.0">Em obras</text></g><g class="tick"><line stroke="#000000" stroke-width="1" x1="795.8" x2="795.8" y1="0" y2="462.0" /><text dy="1em" fill="#000000" font-family="Monaco" text-anchor="middle" x="795.8" y="466.0">Em execução</text></g></g><g class="axis left"><g class="tick"><line stroke="#000000" stroke-width="1" x1="-4" x2="868.0" y1="305.3" y2="305.3" /><text dy="0.32em" fill="#000000" font-family="Monaco" text-anchor="end" x="-8" y="305.3">100</text></g><g class="tick"><line stroke="#000000" stroke-width="1" x1="-4" x2="868.0" y1="152.7" y2="152.7" /><text dy="0.32em" fill="#000000" font-family="Monaco" text-anchor="end" x="-8" y="152.7">200</text></g><g class="tick"><line stroke="#000000" stroke-width="1" x1="-4" x2="868.0" y1="0" y2="0" /><text dy="0.32em" fill="#000000" font-family="Monaco" text-anchor="end" x="-8" y="0">300</text></g><g class="tick"><line stroke="#a8a8a8" stroke-width="1" x1="-4" x2="868.0" y1="458" y2="458" /><text dy="0.32em" fill="#000000" font-family="Monaco" text-anchor="end" x="-8" y="458">0</text></g></g><g><g class="series columns"><rect fill="#265b6a" height="12.2" width="130.3" x="7.235" y="445.8" /><rect fill="#265b6a" height="26.0" width="130.3" x="151.9" y="432.0" /><rect fill="#265b6a" height="50.4" width="130.3" x="296.6" y="407.6" /><rect fill="#265b6a" height="149.6" width="130.3" x="441.3" y="308.4" /><rect fill="#265b6a" height="196.9" width="130.3" x="586.0" y="261.1" /><rect fill="#265b6a" height="381.7" width="130.3" x="730.7" y="76.3" /></g></g></g></g></g></g></svg>