<?xml version="1.0" standalone="no"?>
<!DOCTYPE svg PUBLIC "-//W3C//DTD SVG 1.1//EN"
"http://www.w3.org/Graphics/SVG/1.1/DTD/svg11.dtd">
<svg height="1600" version="1.1" width="1200" xmlns="http://www.w3.org/2000/svg"><g><rect fill="#f9f9f9" height="1600" width="1200" x="0" y="0" /><g transform="translate(60 60)"><g transform="translate(32 0)"><text fill="#333" font-family="Monaco" font-size="16" x="0" y="0">Obras por UF</text></g><g transform="translate(0 20)"><g transform="translate(32 0)"><g class="axis bottom"><g class="tick"><line stroke="#eee" stroke-width="1" x1="22.78" x2="22.78" y1="0" y2="1442.0" /><text dy="1em" fill="#9c9c9c" font-family="Monaco" text-anchor="middle" x="22.78" y="1446.0">SC</text></g><g class="tick"><line stroke="#eee" stroke-width="1" x1="68.35" x2="68.35" y1="0" y2="1442.0" /><text dy="1em" fill="#9c9c9c" font-family="Monaco" text-anchor="middle" x="68.35" y="1446.0">PI</text></g><g class="tick"><line stroke="#eee" stroke-width="1" x1="113.9" x2="113.9" y1="0" y2="1442.0" /><text dy="1em" fill="#9c9c9c" font-family="Monaco" text-anchor="middle" x="113.9" y="1446.0">AM</text></g><g class="tick"><line stroke="#eee" stroke-width="1" x1="159.5" x2="159.5" y1="0" y2="1442.0" /><text dy="1em" fill="#9c9c9c" font-family="Monaco" text-anchor="middle" x="159.5" y="1446.0">GO</text></g><g class="tick"><line stroke="#eee" stroke-width="1" x1="205.1" x2="205.1" y1="0" y2="1442.0" /><text dy="1em" fill="#9c9c9c" font-family="Monaco" text-anchor="middle" x="205.1" y="1446.0">MT</text></g><g class="tick"><line stroke="#eee" stroke-width="1" x1="250.6" x2="250.6" y1="0" y2="1442.0" /><text dy="1em" fill="#9c9c9c" font-family="Monaco" text-anchor="middle" x="250.6" y="1446.0">SP</text></g><g class="tick"><line stroke="#eee" stroke-width="1" x1="296.2" x2="296.2" y1="0" y2="1442.0" /><text dy="1em" fill="#9c9c9c" font-family="Monaco" text-anchor="middle" x="296.2" y="1446.0">PB</text></g><g class="tick"><line stroke="#eee" stroke-width="1" x1="341.8" x2="341.8" y1="0" y2="1442.0" /><text dy="1em" fill="#9c9c9c" font-family="Monaco" text-anchor="middle" x="341.8" y="1446.0">ES</text></g><g class="tick"><line stroke="#eee" stroke-width="1" x1="387.4" x2="387.4" y1="0" y2="1442.0" /><text dy="1em" fill="#9c9c9c" font-family="Monaco" text-anchor="middle" x="387.4" y="1446.0">RS</text></g><g class="tick"><line stroke="#eee" stroke-width="1" x1="432.9" x2="432.9" y1="0" y2="1442.0" /><text dy="1em" fill="#9c9c9c" font-family="Monaco" text-anchor="middle" x="432.9" y="1446.0">MS</text></g><g class="tick"><line stroke="#eee" stroke-width="1" x1="478.5" x2="478.5" y1="0" y2="1442.0" /><text dy="1em" fill="#9c9c9c" font-family="Monaco" text-anchor="middle" x="478.5" y="1446.0">AL</text></g><g class="tick"><line stroke="#eee" stroke-width="1" x1="524.1" x2="524.1" y1="0" y2="1442.0" /><text dy="1em" fill="#9c9c9c" font-family="Monaco" text-anchor="middle" x="524.1" y="1446.0">MG</text></g><g class="tick"><line stroke="#eee" stroke-width="1" x1="569.6" x2="569.6" y1="0" y2="1442.0" /><text dy="1em" fill="#9c9c9c" font-family="Monaco" text-anchor="middle" x="569.6" y="1446.0">PA</text></g><g class="tick"><line stroke="#eee" stroke-width="1" x1="615.2" x2="615.2" y1="0" y2="1442.0" /><text dy="1em" fill="#9c9c9c" font-family="Monaco" text-anchor="middle" x="615.2" y="1446.0">BA</text></g><g class="tick"><line stroke="#eee" stroke-width="1" x1="660.8" x2="660.8" y1="0" y2="1442.0" /><text dy="1em" fill="#9c9c9c" font-family="Monaco" text-anchor="middle" x="660.8" y="1446.0">SE</text></g><g class="tick"><line stroke="#eee" stroke-width="1" x1="706.4" x2="706.4" y1="0" y2="1442.0" /><text dy="1em" fill="#9c9c9c" font-family="Monaco" text-anchor="middle" x="706.4" y="1446.0">PE</text></g><g class="tick"><line stroke="#eee" stroke-width="1" x1="751.9" x2="751.9" y1="0" y2="1442.0" /><text dy="1em" fill="#9c9c9c" font-family="Monaco" text-anchor="middle" x="751.9" y="1446.0">CE</text></g><g class="tick"><line stroke="#eee" stroke-width="1" x1="797.5" x2="797.5" y1="0" y2="1442.0" /><text dy="1em" fill="#9c9c9c" font-family="Monaco" text-anchor="middle" x="797.5" y="1446.0">RN</text></g><g class="tick"><line stroke="#eee" stroke-width="1" x1="843.1" x2="843.1" y1="0" y2="1442.0" /><text dy="1em" fill="#9c9c9c" font-family="Monaco" text-anchor="middle" x="843.1" y="1446.0">RJ</text></g><g class="tick"><line stroke="#eee" stroke-width="1" x1="888.6" x2="888.6" y1="0" y2="1442.0" /><text dy="1em" fill="#9c9c9c" font-family="Monaco" text-anchor="middle" x="888.6" y="1446.0">MA</text></g><g class="tick"><line stroke="#eee" stroke-width="1" x1="934.2" x2="934.2" y1="0" y2="1442.0" /><text dy="1em" fill="#9c9c9c" font-family="Monaco" text-anchor="middle" x="934.2" y="1446.0">AC</text></g><g class="tick"><line stroke="#eee" stroke-width="1" x1="979.8" x2="979.8" y1="0" y2="1442.0" /><text dy="1em" fill="#9c9c9c" font-family="Monaco" text-anchor="middle" x="979.8" y="1446.0">PR</text></g><g class="tick"><line stroke="#eee" stroke-width="1" x1="1026" x2="1026" y1="0" y2="1442.0" /><text dy="1em" fill="#9c9c9c" font-family="Monaco" text-anchor="middle" x="1026" y="1446.0">AP</text></g></g><g class="axis left"><g class="tick"><line stroke="#eee" stroke-width="1" x1="-4" x2="1048.0" y1="1150" y2="1150" /><text dy="0.32em" fill="#9c9c9c" font-family="Monaco" text-anchor="end" x="-8" y="1150">25</text></g><g class="tick"><line stroke="#eee" stroke-width="1" x1="-4" x2="1048.0" y1="862.8" y2="862.8" /><text dy="0.32em" fill="#9c9c9c" font-family="Monaco" text-anchor="end" x="-8" y="862.8">50</text></g><g class="tick"><line stroke="#eee" stroke-width="1" x1="-4" x2="1048.0" y1="575.2" y2="575.2" /><text dy="0.32em" fill="#9c9c9c" font-family="Monaco" text-anchor="end" x="-8" y="575.2">75</text></g><g class="tick"><line stroke="#eee" stroke-width="1" x1="-4" x2="1048.0" y1="288" y2="288" /><text dy="0.32em" fill="#9c9c9c" font-family="Monaco" text-anchor="end" x="-8" y="288">100</text></g><g class="tick"><line stroke="#eee" stroke-width="1" x1="-4" x2="1048.0" y1="0" y2="0" /><text dy="0.32em" fill="#9c9c9c" font-family="Monaco" text-anchor="end" x="-8" y="0">125</text></g><g class="tick"><line stroke="#a8a8a8" stroke-width="1" x1="-4" x2="1048.0" y1="1438" y2="1438" /><text dy="0.32em" fill="#9c9c9c" font-family="Monaco" text-anchor="end" x="-8" y="1438">0</text></g></g><g><g class="series columns"><rect fill="#265b6a" height="230" width="41.01" x="2.278" y="1208" /><rect fill="#265b6a" height="92" width="41.01" x="47.85" y="1346" /><rect fill="#265b6a" height="196" width="40.98" x="93.42" y="1242" /><rect fill="#265b6a" height="138" width="41.0" x="139.0" y="1300" /><rect fill="#265b6a" height="196" width="40.9" x="184.6" y="1242" /><rect fill="#265b6a" height="265" width="41.0" x="230.1" y="1173" /><rect fill="#265b6a" height="150" width="41.0" x="275.7" y="1288" /><rect fill="#265b6a" height="46" width="41.0" x="321.3" y="1392" /><rect fill="#265b6a" height="460.2" width="40.9" x="366.9" y="977.8" /><rect fill="#265b6a" height="126" width="41.0" x="412.4" y="1312" /><rect fill="#265b6a" height="276" width="41.0" x="458.0" y="1162" /><rect fill="#265b6a" height="1173" width="40.9" x="503.6" y="265" /><rect fill="#265b6a" height="230" width="41.0" x="549.1" y="1208" /><rect fill="#265b6a" height="563.7" width="41.0" x="594.7" y="874.3" /><rect fill="#265b6a" height="161" width="41.0" x="640.3" y="1277" /><rect fill="#265b6a" height="357" width="40.9" x="685.9" y="1081" /><rect fill="#265b6a" height="288" width="41.0" x="731.4" y="1150" /><rect fill="#265b6a" height="126" width="41.0" x="777.0" y="1312" /><rect fill="#265b6a" height="322" width="40.9" x="822.6" y="1116" /><rect fill="#265b6a" height="540.7" width="41.0" x="868.1" y="897.3" /><rect fill="#265b6a" height="23" width="41.0" x="913.7" y="1415" /><rect fill="#265b6a" height="184" width="41.7" x="959.3" y="1254" /><rect fill="#265b6a" height="12" width="41" x="1005" y="1426" /></g></g></g></g></g></g></svg>