<?xml version="1.0" standalone="no"?>
<!DOCTYPE svg PUBLIC "-//W3C//DTD SVG 1.1//EN"
"http://www.w3.org/Graphics/SVG/1.1/DTD/svg11.dtd">
<svg height="600" version="1.1" width="1000" xmlns="http://www.w3.org/2000/svg"><g><rect fill="#ffffff" height="600" width="1000" x="0" y="0" /><g transform="translate(50 50)"><g transform="translate(32 0)"><text fill="#000000" font-family="Monaco" font-size="25" x="0" y="0">Obras por unidades da federação</text></g><g transform="translate(0 20)"><g transform="translate(32 0)"><g class="axis bottom"><g class="tick"><line stroke="#000000" stroke-width="1" x1="18.87" x2="18.87" y1="0" y2="462.0" /><text dy="1em" fill="#000000" font-family="Monaco" text-anchor="middle" x="18.87" y="466.0">AP</text></g><g class="tick"><line stroke="#000000" stroke-width="1" x1="56.61" x2="56.61" y1="0" y2="462.0" /><text dy="1em" fill="#000000" font-family="Monaco" text-anchor="middle" x="56.61" y="466.0">AC</text></g><g class="tick"><line stroke="#000000" stroke-width="1" x1="94.35" x2="94.35" y1="0" y2="462.0" /><text dy="1em" fill="#000000" font-family="Monaco" text-anchor="middle" x="94.35" y="466.0">ES</text></g><g class="tick"><line stroke="#000000" stroke-width="1" x1="132.1" x2="132.1" y1="0" y2="462.0" /><text dy="1em" fill="#000000" font-family="Monaco" text-anchor="middle" x="132.1" y="466.0">PI</text></g><g class="tick"><line stroke="#000000" stroke-width="1" x1="169.9" x2="169.9" y1="0" y2="462.0" /><text dy="1em" fill="#000000" font-family="Monaco" text-anchor="middle" x="169.9" y="466.0">MS</text></g><g class="tick"><line stroke="#000000" stroke-width="1" x1="207.6" x2="207.6" y1="0" y2="462.0" /><text dy="1em" fill="#000000" font-family="Monaco" text-anchor="middle" x="207.6" y="466.0">RN</text></g><g class="tick"><line stroke="#000000" stroke-width="1" x1="245.3" x2="245.3" y1="0" y2="462.0" /><text dy="1em" fill="#000000" font-family="Monaco" text-anchor="middle" x="245.3" y="466.0">GO</text></g><g class="tick"><line stroke="#000000" stroke-width="1" x1="283.1" x2="283.1" y1="0" y2="462.0" /><text dy="1em" fill="#000000" font-family="Monaco" text-anchor="middle" x="283.1" y="466.0">PB</text></g><g class="tick"><line stroke="#000000" stroke-width="1" x1="320.8" x2="320.8" y1="0" y2="462.0" /><text dy="1em" fill="#000000" font-family="Monaco" text-anchor="middle" x="320.8" y="466.0">SE</text></g><g class="tick"><line stroke="#000000" stroke-width="1" x1="358.6" x2="358.6" y1="0" y2="462.0" /><text dy="1em" fill="#000000" font-family="Monaco" text-anchor="middle" x="358.6" y="466.0">PR</text></g><g class="tick"><line stroke="#000000" stroke-width="1" x1="396.3" x2="396.3" y1="0" y2="462.0" /><text dy="1em" fill="#000000" font-family="Monaco" text-anchor="middle" x="396.3" y="466.0">AM</text></g><g class="tick"><line stroke="#000000" stroke-width="1" x1="434.0" x2="434.0" y1="0" y2="462.0" /><text dy="1em" fill="#000000" font-family="Monaco" text-anchor="middle" x="434.0" y="466.0">MT</text></g><g class="tick"><line stroke="#000000" stroke-width="1" x1="471.8" x2="471.8" y1="0" y2="462.0" /><text dy="1em" fill="#000000" font-family="Monaco" text-anchor="middle" x="471.8" y="466.0">SC</text></g><g class="tick"><line stroke="#000000" stroke-width="1" x1="509.5" x2="509.5" y1="0" y2="462.0" /><text dy="1em" fill="#000000" font-family="Monaco" text-anchor="middle" x="509.5" y="466.0">PA</text></g><g class="tick"><line stroke="#000000" stroke-width="1" x1="547.3" x2="547.3" y1="0" y2="462.0" /><text dy="1em" fill="#000000" font-family="Monaco" text-anchor="middle" x="547.3" y="466.0">SP</text></g><g class="tick"><line stroke="#000000" stroke-width="1" x1="585.0" x2="585.0" y1="0" y2="462.0" /><text dy="1em" fill="#000000" font-family="Monaco" text-anchor="middle" x="585.0" y="466.0">AL</text></g><g class="tick"><line stroke="#000000" stroke-width="1" x1="622.7" x2="622.7" y1="0" y2="462.0" /><text dy="1em" fill="#000000" font-family="Monaco" text-anchor="middle" x="622.7" y="466.0">CE</text></g><g class="tick"><line stroke="#000000" stroke-width="1" x1="660.5" x2="660.5" y1="0" y2="462.0" /><text dy="1em" fill="#000000" font-family="Monaco" text-anchor="middle" x="660.5" y="466.0">RJ</text></g><g class="tick"><line stroke="#000000" stroke-width="1" x1="698.2" x2="698.2" y1="0" y2="462.0" /><text dy="1em" fill="#000000" font-family="Monaco" text-anchor="middle" x="698.2" y="466.0">PE</text></g><g class="tick"><line stroke="#000000" stroke-width="1" x1="736.0" x2="736.0" y1="0" y2="462.0" /><text dy="1em" fill="#000000" font-family="Monaco" text-anchor="middle" x="736.0" y="466.0">RS</text></g><g class="tick"><line stroke="#000000" stroke-width="1" x1="773.7" x2="773.7" y1="0" y2="462.0" /><text dy="1em" fill="#000000" font-family="Monaco" text-anchor="middle" x="773.7" y="466.0">MA</text></g><g class="tick"><line stroke="#000000" stroke-width="1" x1="811.4" x2="811.4" y1="0" y2="462.0" /><text dy="1em" fill="#000000" font-family="Monaco" text-anchor="middle" x="811.4" y="466.0">BA</text></g><g class="tick"><line stroke="#000000" stroke-width="1" x1="849.2" x2="849.2" y1="0" y2="462.0" /><text dy="1em" fill="#000000" font-family="Monaco" text-anchor="middle" x="849.2" y="466.0">MG</text></g></g><g class="axis left"><g class="tick"><line stroke="#000000" stroke-width="1" x1="-4" x2="868.0" y1="366.4" y2="366.4" /><text dy="0.32em" fill="#000000" font-family="Monaco" text-anchor="end" x="-8" y="366.4">25</text></g><g class="tick"><line stroke="#000000" stroke-width="1" x1="-4" x2="868.0" y1="274.8" y2="274.8" /><text dy="0.32em" fill="#000000" font-family="Monaco" text-anchor="end" x="-8" y="274.8">50</text></g><g class="tick"><line stroke="#000000" stroke-width="1" x1="-4" x2="868.0" y1="183.2" y2="183.2" /><text dy="0.32em" fill="#000000" font-family="Monaco" text-anchor="end" x="-8" y="183.2">75</text></g><g class="tick"><line stroke="#000000" stroke-width="1" x1="-4" x2="868.0" y1="91.6" y2="91.6" /><text dy="0.32em" fill="#000000" font-family="Monaco" text-anchor="end" x="-8" y="91.6">100</text></g><g class="tick"><line stroke="#000000" stroke-width="1" x1="-4" x2="868.0" y1="0" y2="0" /><text dy="0.32em" fill="#000000" font-family="Monaco" text-anchor="end" x="-8" y="0">125</text></g><g class="tick"><line stroke="#a8a8a8" stroke-width="1" x1="-4" x2="868.0" y1="458" y2="458" /><text dy="0.32em" fill="#000000" font-family="Monaco" text-anchor="end" x="-8" y="458">0</text></g></g><g><g class="series columns"><rect fill="#265b6a" height="3.7" width="33.96" x="1.887" y="454.3" /><rect fill="#265b6a" height="7.3" width="33.96" x="39.63" y="450.7" /><rect fill="#265b6a" height="14.7" width="33.93" x="77.37" y="443.3" /><rect fill="#265b6a" height="29.3" width="34.0" x="115.1" y="428.7" /><rect fill="#265b6a" height="40.3" width="33.9" x="152.9" y="417.7" /><rect fill="#265b6a" height="40.3" width="33.9" x="190.6" y="417.7" /><rect fill="#265b6a" height="44.0" width="34.0" x="228.3" y="414.0" /><rect fill="#265b6a" height="47.6" width="33.9" x="266.1" y="410.4" /><rect fill="#265b6a" height="51.3" width="34.0" x="303.8" y="406.7" /><rect fill="#265b6a" height="58.6" width="33.9" x="341.6" y="399.4" /><rect fill="#265b6a" height="62.3" width="33.9" x="379.3" y="395.7" /><rect fill="#265b6a" height="62.3" width="34.0" x="417.0" y="395.7" /><rect fill="#265b6a" height="73.3" width="33.9" x="454.8" y="384.7" /><rect fill="#265b6a" height="73.3" width="34.0" x="492.5" y="384.7" /><rect fill="#265b6a" height="84.3" width="33.9" x="530.3" y="373.7" /><rect fill="#265b6a" height="87.9" width="33.9" x="568.0" y="370.1" /><rect fill="#265b6a" height="91.6" width="34.0" x="605.7" y="366.4" /><rect fill="#265b6a" height="102.6" width="33.9" x="643.5" y="355.4" /><rect fill="#265b6a" height="113.6" width="34.0" x="681.2" y="344.4" /><rect fill="#265b6a" height="146.6" width="33.9" x="719.0" y="311.4" /><rect fill="#265b6a" height="172.2" width="33.9" x="756.7" y="285.8" /><rect fill="#265b6a" height="179.5" width="34.0" x="794.4" y="278.5" /><rect fill="#265b6a" height="373.7" width="33.9" x="832.2" y="84.3" /></g></g></g></g></g></g></svg>