<?xml version="1.0" standalone="no"?>
<!DOCTYPE svg PUBLIC "-//W3C//DTD SVG 1.1//EN"
"http://www.w3.org/Graphics/SVG/1.1/DTD/svg11.dtd">
<svg height="600" version="1.1" width="900" xmlns="http://www.w3.org/2000/svg"><g><rect fill="#f9f9f9" height="600" width="900" x="0" y="0" /><g transform="translate(45 45)"><g transform="translate(32 0)"><text fill="#333" font-family="Monaco" font-size="16" x="0" y="0">Obras por UF</text></g><g transform="translate(0 20)"><g transform="translate(32 0)"><g class="axis bottom"><g class="tick"><line stroke="#eee" stroke-width="1" x1="16.92" x2="16.92" y1="0" y2="472.0" /><text dy="1em" fill="#9c9c9c" font-family="Monaco" text-anchor="middle" x="16.92" y="476.0">SC</text></g><g class="tick"><line stroke="#eee" stroke-width="1" x1="50.75" x2="50.75" y1="0" y2="472.0" /><text dy="1em" fill="#9c9c9c" font-family="Monaco" text-anchor="middle" x="50.75" y="476.0">PI</text></g><g class="tick"><line stroke="#eee" stroke-width="1" x1="84.58" x2="84.58" y1="0" y2="472.0" /><text dy="1em" fill="#9c9c9c" font-family="Monaco" text-anchor="middle" x="84.58" y="476.0">AM</text></g><g class="tick"><line stroke="#eee" stroke-width="1" x1="118.4" x2="118.4" y1="0" y2="472.0" /><text dy="1em" fill="#9c9c9c" font-family="Monaco" text-anchor="middle" x="118.4" y="476.0">GO</text></g><g class="tick"><line stroke="#eee" stroke-width="1" x1="152.2" x2="152.2" y1="0" y2="472.0" /><text dy="1em" fill="#9c9c9c" font-family="Monaco" text-anchor="middle" x="152.2" y="476.0">MT</text></g><g class="tick"><line stroke="#eee" stroke-width="1" x1="186.1" x2="186.1" y1="0" y2="472.0" /><text dy="1em" fill="#9c9c9c" font-family="Monaco" text-anchor="middle" x="186.1" y="476.0">SP</text></g><g class="tick"><line stroke="#eee" stroke-width="1" x1="219.9" x2="219.9" y1="0" y2="472.0" /><text dy="1em" fill="#9c9c9c" font-family="Monaco" text-anchor="middle" x="219.9" y="476.0">PB</text></g><g class="tick"><line stroke="#eee" stroke-width="1" x1="253.7" x2="253.7" y1="0" y2="472.0" /><text dy="1em" fill="#9c9c9c" font-family="Monaco" text-anchor="middle" x="253.7" y="476.0">ES</text></g><g class="tick"><line stroke="#eee" stroke-width="1" x1="287.5" x2="287.5" y1="0" y2="472.0" /><text dy="1em" fill="#9c9c9c" font-family="Monaco" text-anchor="middle" x="287.5" y="476.0">RS</text></g><g class="tick"><line stroke="#eee" stroke-width="1" x1="321.4" x2="321.4" y1="0" y2="472.0" /><text dy="1em" fill="#9c9c9c" font-family="Monaco" text-anchor="middle" x="321.4" y="476.0">MS</text></g><g class="tick"><line stroke="#eee" stroke-width="1" x1="355.2" x2="355.2" y1="0" y2="472.0" /><text dy="1em" fill="#9c9c9c" font-family="Monaco" text-anchor="middle" x="355.2" y="476.0">AL</text></g><g class="tick"><line stroke="#eee" stroke-width="1" x1="389.0" x2="389.0" y1="0" y2="472.0" /><text dy="1em" fill="#9c9c9c" font-family="Monaco" text-anchor="middle" x="389.0" y="476.0">MG</text></g><g class="tick"><line stroke="#eee" stroke-width="1" x1="422.9" x2="422.9" y1="0" y2="472.0" /><text dy="1em" fill="#9c9c9c" font-family="Monaco" text-anchor="middle" x="422.9" y="476.0">PA</text></g><g class="tick"><line stroke="#eee" stroke-width="1" x1="456.7" x2="456.7" y1="0" y2="472.0" /><text dy="1em" fill="#9c9c9c" font-family="Monaco" text-anchor="middle" x="456.7" y="476.0">BA</text></g><g class="tick"><line stroke="#eee" stroke-width="1" x1="490.5" x2="490.5" y1="0" y2="472.0" /><text dy="1em" fill="#9c9c9c" font-family="Monaco" text-anchor="middle" x="490.5" y="476.0">SE</text></g><g class="tick"><line stroke="#eee" stroke-width="1" x1="524.3" x2="524.3" y1="0" y2="472.0" /><text dy="1em" fill="#9c9c9c" font-family="Monaco" text-anchor="middle" x="524.3" y="476.0">PE</text></g><g class="tick"><line stroke="#eee" stroke-width="1" x1="558.2" x2="558.2" y1="0" y2="472.0" /><text dy="1em" fill="#9c9c9c" font-family="Monaco" text-anchor="middle" x="558.2" y="476.0">CE</text></g><g class="tick"><line stroke="#eee" stroke-width="1" x1="592.0" x2="592.0" y1="0" y2="472.0" /><text dy="1em" fill="#9c9c9c" font-family="Monaco" text-anchor="middle" x="592.0" y="476.0">RN</text></g><g class="tick"><line stroke="#eee" stroke-width="1" x1="625.8" x2="625.8" y1="0" y2="472.0" /><text dy="1em" fill="#9c9c9c" font-family="Monaco" text-anchor="middle" x="625.8" y="476.0">RJ</text></g><g class="tick"><line stroke="#eee" stroke-width="1" x1="659.7" x2="659.7" y1="0" y2="472.0" /><text dy="1em" fill="#9c9c9c" font-family="Monaco" text-anchor="middle" x="659.7" y="476.0">MA</text></g><g class="tick"><line stroke="#eee" stroke-width="1" x1="693.5" x2="693.5" y1="0" y2="472.0" /><text dy="1em" fill="#9c9c9c" font-family="Monaco" text-anchor="middle" x="693.5" y="476.0">AC</text></g><g class="tick"><line stroke="#eee" stroke-width="1" x1="727.3" x2="727.3" y1="0" y2="472.0" /><text dy="1em" fill="#9c9c9c" font-family="Monaco" text-anchor="middle" x="727.3" y="476.0">PR</text></g><g class="tick"><line stroke="#eee" stroke-width="1" x1="761.2" x2="761.2" y1="0" y2="472.0" /><text dy="1em" fill="#9c9c9c" font-family="Monaco" text-anchor="middle" x="761.2" y="476.0">AP</text></g></g><g class="axis left"><g class="tick"><line stroke="#eee" stroke-width="1" x1="-4" x2="778.0" y1="374.4" y2="374.4" /><text dy="0.32em" fill="#9c9c9c" font-family="Monaco" text-anchor="end" x="-8" y="374.4">25</text></g><g class="tick"><line stroke="#eee" stroke-width="1" x1="-4" x2="778.0" y1="280.8" y2="280.8" /><text dy="0.32em" fill="#9c9c9c" font-family="Monaco" text-anchor="end" x="-8" y="280.8">50</text></g><g class="tick"><line stroke="#eee" stroke-width="1" x1="-4" x2="778.0" y1="187.2" y2="187.2" /><text dy="0.32em" fill="#9c9c9c" font-family="Monaco" text-anchor="end" x="-8" y="187.2">75</text></g><g class="tick"><line stroke="#eee" stroke-width="1" x1="-4" x2="778.0" y1="93.6" y2="93.6" /><text dy="0.32em" fill="#9c9c9c" font-family="Monaco" text-anchor="end" x="-8" y="93.6">100</text></g><g class="tick"><line stroke="#eee" stroke-width="1" x1="-4" x2="778.0" y1="0" y2="0" /><text dy="0.32em" fill="#9c9c9c" font-family="Monaco" text-anchor="end" x="-8" y="0">125</text></g><g class="tick"><line stroke="#a8a8a8" stroke-width="1" x1="-4" x2="778.0" y1="468" y2="468" /><text dy="0.32em" fill="#9c9c9c" font-family="Monaco" text-anchor="end" x="-8" y="468">0</text></g></g><g><g class="series columns"><rect fill="#265b6a" height="74.9" width="30.45" x="1.692" y="393.1" /><rect fill="#265b6a" height="30.0" width="30.45" x="35.52" y="438.0" /><rect fill="#265b6a" height="63.6" width="30.46" x="69.35" y="404.4" /><rect fill="#265b6a" height="44.9" width="30.4" x="103.2" y="423.1" /><rect fill="#265b6a" height="63.6" width="30.5" x="137.0" y="404.4" /><rect fill="#265b6a" height="86.1" width="30.4" x="170.9" y="381.9" /><rect fill="#265b6a" height="48.7" width="30.4" x="204.7" y="419.3" /><rect fill="#265b6a" height="15.0" width="30.4" x="238.5" y="453.0" /><rect fill="#265b6a" height="149.8" width="30.5" x="272.3" y="318.2" /><rect fill="#265b6a" height="41.2" width="30.4" x="306.2" y="426.8" /><rect fill="#265b6a" height="89.9" width="30.4" x="340.0" y="378.1" /><rect fill="#265b6a" height="381.9" width="30.5" x="373.8" y="86.1" /><rect fill="#265b6a" height="74.9" width="30.4" x="407.7" y="393.1" /><rect fill="#265b6a" height="183.5" width="30.4" x="441.5" y="284.5" /><rect fill="#265b6a" height="52.4" width="30.4" x="475.3" y="415.6" /><rect fill="#265b6a" height="116.1" width="30.5" x="509.1" y="351.9" /><rect fill="#265b6a" height="93.6" width="30.4" x="543.0" y="374.4" /><rect fill="#265b6a" height="41.2" width="30.4" x="576.8" y="426.8" /><rect fill="#265b6a" height="104.8" width="30.5" x="610.6" y="363.2" /><rect fill="#265b6a" height="176.0" width="30.4" x="644.5" y="292.0" /><rect fill="#265b6a" height="7.5" width="30.4" x="678.3" y="460.5" /><rect fill="#265b6a" height="59.9" width="30.5" x="712.1" y="408.1" /><rect fill="#265b6a" height="3.7" width="30.4" x="746.0" y="464.3" /></g></g></g></g></g></g></svg>