<?xml version="1.0" standalone="no"?>
<!DOCTYPE svg PUBLIC "-//W3C//DTD SVG 1.1//EN"
"http://www.w3.org/Graphics/SVG/1.1/DTD/svg11.dtd">
<svg height="600" version="1.1" width="900" xmlns="http://www.w3.org/2000/svg"><g><rect fill="#f9f9f9" height="600" width="900" x="0" y="0" /><g transform="translate(45 45)"><g transform="translate(32 0)"><text fill="#333" font-family="Monaco" font-size="16" x="0" y="0">Obras por estagio</text></g><g transform="translate(0 20)"><g transform="translate(32 0)"><g class="axis bottom"><g class="tick"><line stroke="#eee" stroke-width="1" x1="64.85" x2="64.85" y1="0" y2="472.0" /><text dy="1em" fill="#9c9c9c" font-family="Monaco" text-anchor="middle" x="64.85" y="476.0">Em execução</text></g><g class="tick"><line stroke="#eee" stroke-width="1" x1="194.6" x2="194.6" y1="0" y2="472.0" /><text dy="1em" fill="#9c9c9c" font-family="Monaco" text-anchor="middle" x="194.6" y="476.0">Em licitação de projeto</text></g><g class="tick"><line stroke="#eee" stroke-width="1" x1="324.2" x2="324.2" y1="0" y2="472.0" /><text dy="1em" fill="#9c9c9c" font-family="Monaco" text-anchor="middle" x="324.2" y="476.0">Ação preparatória</text></g><g class="tick"><line stroke="#eee" stroke-width="1" x1="454.0" x2="454.0" y1="0" y2="472.0" /><text dy="1em" fill="#9c9c9c" font-family="Monaco" text-anchor="middle" x="454.0" y="476.0">Em obras</text></g><g class="tick"><line stroke="#eee" stroke-width="1" x1="583.6" x2="583.6" y1="0" y2="472.0" /><text dy="1em" fill="#9c9c9c" font-family="Monaco" text-anchor="middle" x="583.6" y="476.0">Concluído</text></g><g class="tick"><line stroke="#eee" stroke-width="1" x1="713.4" x2="713.4" y1="0" y2="472.0" /><text dy="1em" fill="#9c9c9c" font-family="Monaco" text-anchor="middle" x="713.4" y="476.0">Em licitação de obra</text></g></g><g class="axis left"><g class="tick"><line stroke="#eee" stroke-width="1" x1="-4" x2="778.0" y1="312.0" y2="312.0" /><text dy="0.32em" fill="#9c9c9c" font-family="Monaco" text-anchor="end" x="-8" y="312.0">100</text></g><g class="tick"><line stroke="#eee" stroke-width="1" x1="-4" x2="778.0" y1="156.0" y2="156.0" /><text dy="0.32em" fill="#9c9c9c" font-family="Monaco" text-anchor="end" x="-8" y="156.0">200</text></g><g class="tick"><line stroke="#eee" stroke-width="1" x1="-4" x2="778.0" y1="0" y2="0" /><text dy="0.32em" fill="#9c9c9c" font-family="Monaco" text-anchor="end" x="-8" y="0">300</text></g><g class="tick"><line stroke="#a8a8a8" stroke-width="1" x1="-4" x2="778.0" y1="468" y2="468" /><text dy="0.32em" fill="#9c9c9c" font-family="Monaco" text-anchor="end" x="-8" y="468">0</text></g></g><g><g class="series columns"><rect fill="#265b6a" height="390.0" width="116.7" x="6.485" y="78.0" /><rect fill="#265b6a" height="26.5" width="116.7" x="136.2" y="441.5" /><rect fill="#265b6a" height="152.9" width="116.7" x="265.9" y="315.1" /><rect fill="#265b6a" height="201.2" width="116.7" x="395.6" y="266.8" /><rect fill="#265b6a" height="51.5" width="116.7" x="525.3" y="416.5" /><rect fill="#265b6a" height="12.5" width="116.7" x="655.0" y="455.5" /></g></g></g></g></g></g></svg>