<?xml version="1.0" standalone="no"?>
<!DOCTYPE svg PUBLIC "-//W3C//DTD SVG 1.1//EN"
"http://www.w3.org/Graphics/SVG/1.1/DTD/svg11.dtd">
<svg height="1600" version="1.1" width="1200" xmlns="http://www.w3.org/2000/svg"><g><rect fill="#f9f9f9" height="1600" width="1200" x="0" y="0" /><g transform="translate(60 60)"><g transform="translate(24 0)"><text fill="#333" font-family="Monaco" font-size="16" x="0" y="0">Porcentagem de Erro</text></g><g transform="translate(0 20)"><g transform="translate(24 0)"><g class="axis bottom"><g class="tick"><line stroke="#eee" stroke-width="1" x1="132" x2="132" y1="0" y2="1442.0" /><text dy="1em" fill="#9c9c9c" font-family="Monaco" text-anchor="middle" x="132" y="1446.0">UF_CODE</text></g><g class="tick"><line stroke="#eee" stroke-width="1" x1="396" x2="396" y1="0" y2="1442.0" /><text dy="1em" fill="#9c9c9c" font-family="Monaco" text-anchor="middle" x="396" y="1446.0">TYPE</text></g><g class="tick"><line stroke="#eee" stroke-width="1" x1="660" x2="660" y1="0" y2="1442.0" /><text dy="1em" fill="#9c9c9c" font-family="Monaco" text-anchor="middle" x="660" y="1446.0">RESPONSABLE</text></g><g class="tick"><line stroke="#eee" stroke-width="1" x1="924" x2="924" y1="0" y2="1442.0" /><text dy="1em" fill="#9c9c9c" font-family="Monaco" text-anchor="middle" x="924" y="1446.0">STAGE</text></g></g><g class="axis left"><g class="tick"><line stroke="#eee" stroke-width="1" x1="-4" x2="1056.0" y1="958.7" y2="958.7" /><text dy="0.32em" fill="#9c9c9c" font-family="Monaco" text-anchor="end" x="-8" y="958.7">25</text></g><g class="tick"><line stroke="#eee" stroke-width="1" x1="-4" x2="1056.0" y1="479.3" y2="479.3" /><text dy="0.32em" fill="#9c9c9c" font-family="Monaco" text-anchor="end" x="-8" y="479.3">50</text></g><g class="tick"><line stroke="#eee" stroke-width="1" x1="-4" x2="1056.0" y1="0" y2="0" /><text dy="0.32em" fill="#9c9c9c" font-family="Monaco" text-anchor="end" x="-8" y="0">75</text></g><g class="tick"><line stroke="#a8a8a8" stroke-width="1" x1="-4" x2="1056.0" y1="1438" y2="1438" /><text dy="0.32em" fill="#9c9c9c" font-family="Monaco" text-anchor="end" x="-8" y="1438">0</text></g></g><g><g class="series columns"><rect fill="#265b6a" height="1416" width="237.6" x="13.2" y="22" /><rect fill="#265b6a" height="0" width="237.6" x="277.2" y="1438" /><rect fill="#265b6a" height="17" width="237.6" x="541.2" y="1421" /><rect fill="#265b6a" height="759.3" width="237.8" x="805.2" y="678.7" /></g></g></g></g></g></g></svg>