<?xml version="1.0" standalone="no"?>
<!DOCTYPE svg PUBLIC "-//W3C//DTD SVG 1.1//EN"
"http://www.w3.org/Graphics/SVG/1.1/DTD/svg11.dtd">
<svg height="600" version="1.1" width="900" xmlns="http://www.w3.org/2000/svg"><g><rect fill="#f9f9f9" height="600" width="900" x="0" y="0" /><g transform="translate(45 45)"><g transform="translate(24 0)"><text fill="#333" font-family="Monaco" font-size="16" x="0" y="0">Porcentagem de Erro</text></g><g transform="translate(0 20)"><g transform="translate(24 0)"><g class="axis bottom"><g class="tick"><line stroke="#eee" stroke-width="1" x1="98.25" x2="98.25" y1="0" y2="472.0" /><text dy="1em" fill="#9c9c9c" font-family="Monaco" text-anchor="middle" x="98.25" y="476.0">UF_CODE</text></g><g class="tick"><line stroke="#eee" stroke-width="1" x1="294.8" x2="294.8" y1="0" y2="472.0" /><text dy="1em" fill="#9c9c9c" font-family="Monaco" text-anchor="middle" x="294.8" y="476.0">TYPE</text></g><g class="tick"><line stroke="#eee" stroke-width="1" x1="491.2" x2="491.2" y1="0" y2="472.0" /><text dy="1em" fill="#9c9c9c" font-family="Monaco" text-anchor="middle" x="491.2" y="476.0">RESPONSABLE</text></g><g class="tick"><line stroke="#eee" stroke-width="1" x1="687.8" x2="687.8" y1="0" y2="472.0" /><text dy="1em" fill="#9c9c9c" font-family="Monaco" text-anchor="middle" x="687.8" y="476.0">STAGE</text></g></g><g class="axis left"><g class="tick"><line stroke="#eee" stroke-width="1" x1="-4" x2="786.0" y1="351.0" y2="351.0" /><text dy="0.32em" fill="#9c9c9c" font-family="Monaco" text-anchor="end" x="-8" y="351.0">20</text></g><g class="tick"><line stroke="#eee" stroke-width="1" x1="-4" x2="786.0" y1="234.0" y2="234.0" /><text dy="0.32em" fill="#9c9c9c" font-family="Monaco" text-anchor="end" x="-8" y="234.0">40</text></g><g class="tick"><line stroke="#eee" stroke-width="1" x1="-4" x2="786.0" y1="117.0" y2="117.0" /><text dy="0.32em" fill="#9c9c9c" font-family="Monaco" text-anchor="end" x="-8" y="117.0">60</text></g><g class="tick"><line stroke="#eee" stroke-width="1" x1="-4" x2="786.0" y1="0" y2="0" /><text dy="0.32em" fill="#9c9c9c" font-family="Monaco" text-anchor="end" x="-8" y="0">80</text></g><g class="tick"><line stroke="#a8a8a8" stroke-width="1" x1="-4" x2="786.0" y1="468" y2="468" /><text dy="0.32em" fill="#9c9c9c" font-family="Monaco" text-anchor="end" x="-8" y="468">0</text></g></g><g><g class="series columns"><rect fill="#265b6a" height="461.5" width="176.9" x="9.825" y="6.5" /><rect fill="#265b6a" height="0" width="176.9" x="206.3" y="468" /><rect fill="#265b6a" height="10.9" width="176.9" x="402.8" y="457.1" /><rect fill="#265b6a" height="243.8" width="176.9" x="599.3" y="224.2" /></g></g></g></g></g></g></svg>