<?xml version="1.0" standalone="no"?>
<!DOCTYPE svg PUBLIC "-//W3C//DTD SVG 1.1//EN"
"http://www.w3.org/Graphics/SVG/1.1/DTD/svg11.dtd">
<svg height="1600" version="1.1" width="1000" xmlns="http://www.w3.org/2000/svg"><g><rect fill="#f9f9f9" height="1600" width="1000" x="0" y="0" /><g transform="translate(50 50)"><g transform="translate(232 0)"><text fill="#333" font-family="Monaco" font-size="16" x="0" y="0">Obras por unidades da federação e estágio</text></g><g transform="translate(0 20)"><g transform="translate(232 0)"><g class="axis bottom"><g class="tick"><line stroke="#eee" stroke-width="1" x1="222.6" x2="222.6" y1="0" y2="1462.0" /><text dy="1em" fill="#9c9c9c" font-family="Monaco" text-anchor="middle" x="222.6" y="1466.0">25</text></g><g class="tick"><line stroke="#eee" stroke-width="1" x1="445.4" x2="445.4" y1="0" y2="1462.0" /><text dy="1em" fill="#9c9c9c" font-family="Monaco" text-anchor="middle" x="445.4" y="1466.0">50</text></g><g class="tick"><line stroke="#eee" stroke-width="1" x1="668" x2="668" y1="0" y2="1462.0" /><text dy="1em" fill="#9c9c9c" font-family="Monaco" text-anchor="middle" x="668" y="1466.0">75</text></g><g class="tick"><line stroke="#a8a8a8" stroke-width="1" x1="0" x2="0" y1="0" y2="1462.0" /><text dy="1em" fill="#9c9c9c" font-family="Monaco" text-anchor="middle" x="0" y="1466.0">0</text></g></g><g class="axis left"><g class="tick"><line stroke="#eee" stroke-width="1" x1="-4" x2="668.0" y1="1449" y2="1449" /><text dy="0.32em" fill="#9c9c9c" font-family="Monaco" text-anchor="end" x="-8" y="1449">SP - Em obras</text></g><g class="tick"><line stroke="#eee" stroke-width="1" x1="-4" x2="668.0" y1="1432" y2="1432" /><text dy="0.32em" fill="#9c9c9c" font-family="Monaco" text-anchor="end" x="-8" y="1432">SP - Em execução</text></g><g class="tick"><line stroke="#eee" stroke-width="1" x1="-4" x2="668.0" y1="1415" y2="1415" /><text dy="0.32em" fill="#9c9c9c" font-family="Monaco" text-anchor="end" x="-8" y="1415">SP - Ação preparatória</text></g><g class="tick"><line stroke="#eee" stroke-width="1" x1="-4" x2="668.0" y1="1398" y2="1398" /><text dy="0.32em" fill="#9c9c9c" font-family="Monaco" text-anchor="end" x="-8" y="1398">SP - Concluído</text></g><g class="tick"><line stroke="#eee" stroke-width="1" x1="-4" x2="668.0" y1="1380" y2="1380" /><text dy="0.32em" fill="#9c9c9c" font-family="Monaco" text-anchor="end" x="-8" y="1380">SP - Em licitação de obra</text></g><g class="tick"><line stroke="#eee" stroke-width="1" x1="-4" x2="668.0" y1="1363" y2="1363" /><text dy="0.32em" fill="#9c9c9c" font-family="Monaco" text-anchor="end" x="-8" y="1363">SE - Em execução</text></g><g class="tick"><line stroke="#eee" stroke-width="1" x1="-4" x2="668.0" y1="1346" y2="1346" /><text dy="0.32em" fill="#9c9c9c" font-family="Monaco" text-anchor="end" x="-8" y="1346">SE - Em obras</text></g><g class="tick"><line stroke="#eee" stroke-width="1" x1="-4" x2="668.0" y1="1329" y2="1329" /><text dy="0.32em" fill="#9c9c9c" font-family="Monaco" text-anchor="end" x="-8" y="1329">SE - Ação preparatória</text></g><g class="tick"><line stroke="#eee" stroke-width="1" x1="-4" x2="668.0" y1="1312" y2="1312" /><text dy="0.32em" fill="#9c9c9c" font-family="Monaco" text-anchor="end" x="-8" y="1312">SE - Em licitação de obra</text></g><g class="tick"><line stroke="#eee" stroke-width="1" x1="-4" x2="668.0" y1="1295" y2="1295" /><text dy="0.32em" fill="#9c9c9c" font-family="Monaco" text-anchor="end" x="-8" y="1295">SC - Em execução</text></g><g class="tick"><line stroke="#eee" stroke-width="1" x1="-4" x2="668.0" y1="1277" y2="1277" /><text dy="0.32em" fill="#9c9c9c" font-family="Monaco" text-anchor="end" x="-8" y="1277">SC - Em obras</text></g><g class="tick"><line stroke="#eee" stroke-width="1" x1="-4" x2="668.0" y1="1260" y2="1260" /><text dy="0.32em" fill="#9c9c9c" font-family="Monaco" text-anchor="end" x="-8" y="1260">SC - Ação preparatória</text></g><g class="tick"><line stroke="#eee" stroke-width="1" x1="-4" x2="668.0" y1="1243" y2="1243" /><text dy="0.32em" fill="#9c9c9c" font-family="Monaco" text-anchor="end" x="-8" y="1243">RS - Em execução</text></g><g class="tick"><line stroke="#eee" stroke-width="1" x1="-4" x2="668.0" y1="1226" y2="1226" /><text dy="0.32em" fill="#9c9c9c" font-family="Monaco" text-anchor="end" x="-8" y="1226">RS - Ação preparatória</text></g><g class="tick"><line stroke="#eee" stroke-width="1" x1="-4" x2="668.0" y1="1209" y2="1209" /><text dy="0.32em" fill="#9c9c9c" font-family="Monaco" text-anchor="end" x="-8" y="1209">RS - Em obras</text></g><g class="tick"><line stroke="#eee" stroke-width="1" x1="-4" x2="668.0" y1="1192" y2="1192" /><text dy="0.32em" fill="#9c9c9c" font-family="Monaco" text-anchor="end" x="-8" y="1192">RS - Concluído</text></g><g class="tick"><line stroke="#eee" stroke-width="1" x1="-4" x2="668.0" y1="1175" y2="1175" /><text dy="0.32em" fill="#9c9c9c" font-family="Monaco" text-anchor="end" x="-8" y="1175">RS - Em licitação de projeto</text></g><g class="tick"><line stroke="#eee" stroke-width="1" x1="-4" x2="668.0" y1="1157" y2="1157" /><text dy="0.32em" fill="#9c9c9c" font-family="Monaco" text-anchor="end" x="-8" y="1157">RN - Em execução</text></g><g class="tick"><line stroke="#eee" stroke-width="1" x1="-4" x2="668.0" y1="1140" y2="1140" /><text dy="0.32em" fill="#9c9c9c" font-family="Monaco" text-anchor="end" x="-8" y="1140">RN - Ação preparatória</text></g><g class="tick"><line stroke="#eee" stroke-width="1" x1="-4" x2="668.0" y1="1123" y2="1123" /><text dy="0.32em" fill="#9c9c9c" font-family="Monaco" text-anchor="end" x="-8" y="1123">RN - Em obras</text></g><g class="tick"><line stroke="#eee" stroke-width="1" x1="-4" x2="668.0" y1="1106" y2="1106" /><text dy="0.32em" fill="#9c9c9c" font-family="Monaco" text-anchor="end" x="-8" y="1106">RJ - Em execução</text></g><g class="tick"><line stroke="#eee" stroke-width="1" x1="-4" x2="668.0" y1="1089" y2="1089" /><text dy="0.32em" fill="#9c9c9c" font-family="Monaco" text-anchor="end" x="-8" y="1089">RJ - Em obras</text></g><g class="tick"><line stroke="#eee" stroke-width="1" x1="-4" x2="668.0" y1="1072" y2="1072" /><text dy="0.32em" fill="#9c9c9c" font-family="Monaco" text-anchor="end" x="-8" y="1072">RJ - Ação preparatória</text></g><g class="tick"><line stroke="#eee" stroke-width="1" x1="-4" x2="668.0" y1="1055" y2="1055" /><text dy="0.32em" fill="#9c9c9c" font-family="Monaco" text-anchor="end" x="-8" y="1055">RJ - Em licitação de projeto</text></g><g class="tick"><line stroke="#eee" stroke-width="1" x1="-4" x2="668.0" y1="1037" y2="1037" /><text dy="0.32em" fill="#9c9c9c" font-family="Monaco" text-anchor="end" x="-8" y="1037">RJ - Concluído</text></g><g class="tick"><line stroke="#eee" stroke-width="1" x1="-4" x2="668.0" y1="1020" y2="1020" /><text dy="0.32em" fill="#9c9c9c" font-family="Monaco" text-anchor="end" x="-8" y="1020">PR - Em execução</text></g><g class="tick"><line stroke="#eee" stroke-width="1" x1="-4" x2="668.0" y1="1003" y2="1003" /><text dy="0.32em" fill="#9c9c9c" font-family="Monaco" text-anchor="end" x="-8" y="1003">PR - Em obras</text></g><g class="tick"><line stroke="#eee" stroke-width="1" x1="-4" x2="668.0" y1="986.4" y2="986.4" /><text dy="0.32em" fill="#9c9c9c" font-family="Monaco" text-anchor="end" x="-8" y="986.4">PR - Ação preparatória</text></g><g class="tick"><line stroke="#eee" stroke-width="1" x1="-4" x2="668.0" y1="969.2" y2="969.2" /><text dy="0.32em" fill="#9c9c9c" font-family="Monaco" text-anchor="end" x="-8" y="969.2">PI - Ação preparatória</text></g><g class="tick"><line stroke="#eee" stroke-width="1" x1="-4" x2="668.0" y1="952.0" y2="952.0" /><text dy="0.32em" fill="#9c9c9c" font-family="Monaco" text-anchor="end" x="-8" y="952.0">PI - Em execução</text></g><g class="tick"><line stroke="#eee" stroke-width="1" x1="-4" x2="668.0" y1="934.9" y2="934.9" /><text dy="0.32em" fill="#9c9c9c" font-family="Monaco" text-anchor="end" x="-8" y="934.9">PE - Ação preparatória</text></g><g class="tick"><line stroke="#eee" stroke-width="1" x1="-4" x2="668.0" y1="917.8" y2="917.8" /><text dy="0.32em" fill="#9c9c9c" font-family="Monaco" text-anchor="end" x="-8" y="917.8">PE - Em execução</text></g><g class="tick"><line stroke="#eee" stroke-width="1" x1="-4" x2="668.0" y1="900.6" y2="900.6" /><text dy="0.32em" fill="#9c9c9c" font-family="Monaco" text-anchor="end" x="-8" y="900.6">PE - Em obras</text></g><g class="tick"><line stroke="#eee" stroke-width="1" x1="-4" x2="668.0" y1="883.4" y2="883.4" /><text dy="0.32em" fill="#9c9c9c" font-family="Monaco" text-anchor="end" x="-8" y="883.4">PE - Em licitação de projeto</text></g><g class="tick"><line stroke="#eee" stroke-width="1" x1="-4" x2="668.0" y1="866.3" y2="866.3" /><text dy="0.32em" fill="#9c9c9c" font-family="Monaco" text-anchor="end" x="-8" y="866.3">PE - Concluído</text></g><g class="tick"><line stroke="#eee" stroke-width="1" x1="-4" x2="668.0" y1="849.2" y2="849.2" /><text dy="0.32em" fill="#9c9c9c" font-family="Monaco" text-anchor="end" x="-8" y="849.2">PB - Em execução</text></g><g class="tick"><line stroke="#eee" stroke-width="1" x1="-4" x2="668.0" y1="832.0" y2="832.0" /><text dy="0.32em" fill="#9c9c9c" font-family="Monaco" text-anchor="end" x="-8" y="832.0">PB - Ação preparatória</text></g><g class="tick"><line stroke="#eee" stroke-width="1" x1="-4" x2="668.0" y1="814.8" y2="814.8" /><text dy="0.32em" fill="#9c9c9c" font-family="Monaco" text-anchor="end" x="-8" y="814.8">PB - Em licitação de obra</text></g><g class="tick"><line stroke="#eee" stroke-width="1" x1="-4" x2="668.0" y1="797.7" y2="797.7" /><text dy="0.32em" fill="#9c9c9c" font-family="Monaco" text-anchor="end" x="-8" y="797.7">PB - Em obras</text></g><g class="tick"><line stroke="#eee" stroke-width="1" x1="-4" x2="668.0" y1="780.6" y2="780.6" /><text dy="0.32em" fill="#9c9c9c" font-family="Monaco" text-anchor="end" x="-8" y="780.6">PB - Concluído</text></g><g class="tick"><line stroke="#eee" stroke-width="1" x1="-4" x2="668.0" y1="763.4" y2="763.4" /><text dy="0.32em" fill="#9c9c9c" font-family="Monaco" text-anchor="end" x="-8" y="763.4">PA - Em licitação de projeto</text></g><g class="tick"><line stroke="#eee" stroke-width="1" x1="-4" x2="668.0" y1="746.2" y2="746.2" /><text dy="0.32em" fill="#9c9c9c" font-family="Monaco" text-anchor="end" x="-8" y="746.2">PA - Ação preparatória</text></g><g class="tick"><line stroke="#eee" stroke-width="1" x1="-4" x2="668.0" y1="729.1" y2="729.1" /><text dy="0.32em" fill="#9c9c9c" font-family="Monaco" text-anchor="end" x="-8" y="729.1">PA - Em execução</text></g><g class="tick"><line stroke="#eee" stroke-width="1" x1="-4" x2="668.0" y1="712.0" y2="712.0" /><text dy="0.32em" fill="#9c9c9c" font-family="Monaco" text-anchor="end" x="-8" y="712.0">PA - Em obras</text></g><g class="tick"><line stroke="#eee" stroke-width="1" x1="-4" x2="668.0" y1="694.8" y2="694.8" /><text dy="0.32em" fill="#9c9c9c" font-family="Monaco" text-anchor="end" x="-8" y="694.8">PA - Concluído</text></g><g class="tick"><line stroke="#eee" stroke-width="1" x1="-4" x2="668.0" y1="677.6" y2="677.6" /><text dy="0.32em" fill="#9c9c9c" font-family="Monaco" text-anchor="end" x="-8" y="677.6">MT - Em obras</text></g><g class="tick"><line stroke="#eee" stroke-width="1" x1="-4" x2="668.0" y1="660.5" y2="660.5" /><text dy="0.32em" fill="#9c9c9c" font-family="Monaco" text-anchor="end" x="-8" y="660.5">MT - Ação preparatória</text></g><g class="tick"><line stroke="#eee" stroke-width="1" x1="-4" x2="668.0" y1="643.4" y2="643.4" /><text dy="0.32em" fill="#9c9c9c" font-family="Monaco" text-anchor="end" x="-8" y="643.4">MT - Em execução</text></g><g class="tick"><line stroke="#eee" stroke-width="1" x1="-4" x2="668.0" y1="626.2" y2="626.2" /><text dy="0.32em" fill="#9c9c9c" font-family="Monaco" text-anchor="end" x="-8" y="626.2">MT - Em licitação de projeto</text></g><g class="tick"><line stroke="#eee" stroke-width="1" x1="-4" x2="668.0" y1="609.0" y2="609.0" /><text dy="0.32em" fill="#9c9c9c" font-family="Monaco" text-anchor="end" x="-8" y="609.0">MS - Em execução</text></g><g class="tick"><line stroke="#eee" stroke-width="1" x1="-4" x2="668.0" y1="591.9" y2="591.9" /><text dy="0.32em" fill="#9c9c9c" font-family="Monaco" text-anchor="end" x="-8" y="591.9">MS - Em obras</text></g><g class="tick"><line stroke="#eee" stroke-width="1" x1="-4" x2="668.0" y1="574.8" y2="574.8" /><text dy="0.32em" fill="#9c9c9c" font-family="Monaco" text-anchor="end" x="-8" y="574.8">MS - Concluído</text></g><g class="tick"><line stroke="#eee" stroke-width="1" x1="-4" x2="668.0" y1="557.6" y2="557.6" /><text dy="0.32em" fill="#9c9c9c" font-family="Monaco" text-anchor="end" x="-8" y="557.6">MS - Ação preparatória</text></g><g class="tick"><line stroke="#eee" stroke-width="1" x1="-4" x2="668.0" y1="540.4" y2="540.4" /><text dy="0.32em" fill="#9c9c9c" font-family="Monaco" text-anchor="end" x="-8" y="540.4">MG - Em execução</text></g><g class="tick"><line stroke="#eee" stroke-width="1" x1="-4" x2="668.0" y1="523.3" y2="523.3" /><text dy="0.32em" fill="#9c9c9c" font-family="Monaco" text-anchor="end" x="-8" y="523.3">MG - Em obras</text></g><g class="tick"><line stroke="#eee" stroke-width="1" x1="-4" x2="668.0" y1="506.2" y2="506.2" /><text dy="0.32em" fill="#9c9c9c" font-family="Monaco" text-anchor="end" x="-8" y="506.2">MG - Ação preparatória</text></g><g class="tick"><line stroke="#eee" stroke-width="1" x1="-4" x2="668.0" y1="489.0" y2="489.0" /><text dy="0.32em" fill="#9c9c9c" font-family="Monaco" text-anchor="end" x="-8" y="489.0">MG - Em licitação de projeto</text></g><g class="tick"><line stroke="#eee" stroke-width="1" x1="-4" x2="668.0" y1="471.8" y2="471.8" /><text dy="0.32em" fill="#9c9c9c" font-family="Monaco" text-anchor="end" x="-8" y="471.8">MG - Concluído</text></g><g class="tick"><line stroke="#eee" stroke-width="1" x1="-4" x2="668.0" y1="454.7" y2="454.7" /><text dy="0.32em" fill="#9c9c9c" font-family="Monaco" text-anchor="end" x="-8" y="454.7">MA - Em execução</text></g><g class="tick"><line stroke="#eee" stroke-width="1" x1="-4" x2="668.0" y1="437.4" y2="437.4" /><text dy="0.32em" fill="#9c9c9c" font-family="Monaco" text-anchor="end" x="-8" y="437.4">MA - Em obras</text></g><g class="tick"><line stroke="#eee" stroke-width="1" x1="-4" x2="668.0" y1="420.4" y2="420.4" /><text dy="0.32em" fill="#9c9c9c" font-family="Monaco" text-anchor="end" x="-8" y="420.4">MA - Concluído</text></g><g class="tick"><line stroke="#eee" stroke-width="1" x1="-4" x2="668.0" y1="403.4" y2="403.4" /><text dy="0.32em" fill="#9c9c9c" font-family="Monaco" text-anchor="end" x="-8" y="403.4">MA - Ação preparatória</text></g><g class="tick"><line stroke="#eee" stroke-width="1" x1="-4" x2="668.0" y1="386.4" y2="386.4" /><text dy="0.32em" fill="#9c9c9c" font-family="Monaco" text-anchor="end" x="-8" y="386.4">GO - Em obras</text></g><g class="tick"><line stroke="#eee" stroke-width="1" x1="-4" x2="668.0" y1="369.4" y2="369.4" /><text dy="0.32em" fill="#9c9c9c" font-family="Monaco" text-anchor="end" x="-8" y="369.4">GO - Concluído</text></g><g class="tick"><line stroke="#eee" stroke-width="1" x1="-4" x2="668.0" y1="351.4" y2="351.4" /><text dy="0.32em" fill="#9c9c9c" font-family="Monaco" text-anchor="end" x="-8" y="351.4">GO - Em execução</text></g><g class="tick"><line stroke="#eee" stroke-width="1" x1="-4" x2="668.0" y1="334.4" y2="334.4" /><text dy="0.32em" fill="#9c9c9c" font-family="Monaco" text-anchor="end" x="-8" y="334.4">ES - Ação preparatória</text></g><g class="tick"><line stroke="#eee" stroke-width="1" x1="-4" x2="668.0" y1="317.4" y2="317.4" /><text dy="0.32em" fill="#9c9c9c" font-family="Monaco" text-anchor="end" x="-8" y="317.4">ES - Em obras</text></g><g class="tick"><line stroke="#eee" stroke-width="1" x1="-4" x2="668.0" y1="300.4" y2="300.4" /><text dy="0.32em" fill="#9c9c9c" font-family="Monaco" text-anchor="end" x="-8" y="300.4">CE - Em execução</text></g><g class="tick"><line stroke="#eee" stroke-width="1" x1="-4" x2="668.0" y1="283.4" y2="283.4" /><text dy="0.32em" fill="#9c9c9c" font-family="Monaco" text-anchor="end" x="-8" y="283.4">CE - Em obras</text></g><g class="tick"><line stroke="#eee" stroke-width="1" x1="-4" x2="668.0" y1="266.4" y2="266.4" /><text dy="0.32em" fill="#9c9c9c" font-family="Monaco" text-anchor="end" x="-8" y="266.4">CE - Ação preparatória</text></g><g class="tick"><line stroke="#eee" stroke-width="1" x1="-4" x2="668.0" y1="249.4" y2="249.4" /><text dy="0.32em" fill="#9c9c9c" font-family="Monaco" text-anchor="end" x="-8" y="249.4">BA - Em execução</text></g><g class="tick"><line stroke="#eee" stroke-width="1" x1="-4" x2="668.0" y1="231.4" y2="231.4" /><text dy="0.32em" fill="#9c9c9c" font-family="Monaco" text-anchor="end" x="-8" y="231.4">BA - Em obras</text></g><g class="tick"><line stroke="#eee" stroke-width="1" x1="-4" x2="668.0" y1="214.4" y2="214.4" /><text dy="0.32em" fill="#9c9c9c" font-family="Monaco" text-anchor="end" x="-8" y="214.4">BA - Ação preparatória</text></g><g class="tick"><line stroke="#eee" stroke-width="1" x1="-4" x2="668.0" y1="197.4" y2="197.4" /><text dy="0.32em" fill="#9c9c9c" font-family="Monaco" text-anchor="end" x="-8" y="197.4">BA - Concluído</text></g><g class="tick"><line stroke="#eee" stroke-width="1" x1="-4" x2="668.0" y1="180.4" y2="180.4" /><text dy="0.32em" fill="#9c9c9c" font-family="Monaco" text-anchor="end" x="-8" y="180.4">AP - Em obras</text></g><g class="tick"><line stroke="#eee" stroke-width="1" x1="-4" x2="668.0" y1="163.4" y2="163.4" /><text dy="0.32em" fill="#9c9c9c" font-family="Monaco" text-anchor="end" x="-8" y="163.4">AM - Concluído</text></g><g class="tick"><line stroke="#eee" stroke-width="1" x1="-4" x2="668.0" y1="146.4" y2="146.4" /><text dy="0.32em" fill="#9c9c9c" font-family="Monaco" text-anchor="end" x="-8" y="146.4">AM - Em obras</text></g><g class="tick"><line stroke="#eee" stroke-width="1" x1="-4" x2="668.0" y1="128.4" y2="128.4" /><text dy="0.32em" fill="#9c9c9c" font-family="Monaco" text-anchor="end" x="-8" y="128.4">AM - Ação preparatória</text></g><g class="tick"><line stroke="#eee" stroke-width="1" x1="-4" x2="668.0" y1="111.4" y2="111.4" /><text dy="0.32em" fill="#9c9c9c" font-family="Monaco" text-anchor="end" x="-8" y="111.4">AM - Em execução</text></g><g class="tick"><line stroke="#eee" stroke-width="1" x1="-4" x2="668.0" y1="94.42" y2="94.42" /><text dy="0.32em" fill="#9c9c9c" font-family="Monaco" text-anchor="end" x="-8" y="94.42">AL - Ação preparatória</text></g><g class="tick"><line stroke="#eee" stroke-width="1" x1="-4" x2="668.0" y1="77.42" y2="77.42" /><text dy="0.32em" fill="#9c9c9c" font-family="Monaco" text-anchor="end" x="-8" y="77.42">AL - Em obras</text></g><g class="tick"><line stroke="#eee" stroke-width="1" x1="-4" x2="668.0" y1="60.42" y2="60.42" /><text dy="0.32em" fill="#9c9c9c" font-family="Monaco" text-anchor="end" x="-8" y="60.42">AL - Em licitação de obra</text></g><g class="tick"><line stroke="#eee" stroke-width="1" x1="-4" x2="668.0" y1="43.42" y2="43.42" /><text dy="0.32em" fill="#9c9c9c" font-family="Monaco" text-anchor="end" x="-8" y="43.42">AL - Concluído</text></g><g class="tick"><line stroke="#eee" stroke-width="1" x1="-4" x2="668.0" y1="26.42" y2="26.42" /><text dy="0.32em" fill="#9c9c9c" font-family="Monaco" text-anchor="end" x="-8" y="26.42">AL - Em execução</text></g><g class="tick"><line stroke="#eee" stroke-width="1" x1="-4" x2="668.0" y1="8.425" y2="8.425" /><text dy="0.32em" fill="#9c9c9c" font-family="Monaco" text-anchor="end" x="-8" y="8.425">AC - Em obras</text></g></g><g><g class="series bars"><rect fill="#265b6a" height="15" width="71.28" x="0" y="1442" /><rect fill="#265b6a" height="15" width="62.34" x="0" y="1425" /><rect fill="#265b6a" height="15" width="35.62" x="0" y="1408" /><rect fill="#265b6a" height="16" width="26.72" x="0" y="1390" /><rect fill="#265b6a" height="15" width="8.904" x="0" y="1373" /><rect fill="#265b6a" height="15" width="53.44" x="0" y="1356" /><rect fill="#265b6a" height="15" width="35.62" x="0" y="1339" /><rect fill="#265b6a" height="15" width="17.82" x="0" y="1322" /><rect fill="#265b6a" height="15" width="17.82" x="0" y="1305" /><rect fill="#265b6a" height="16" width="80.16" x="0" y="1287" /><rect fill="#265b6a" height="15" width="62.34" x="0" y="1270" /><rect fill="#265b6a" height="15" width="35.62" x="0" y="1253" /><rect fill="#265b6a" height="15" width="160.3" x="0" y="1236" /><rect fill="#265b6a" height="15" width="71.28" x="0" y="1219" /><rect fill="#265b6a" height="15" width="62.34" x="0" y="1202" /><rect fill="#265b6a" height="15" width="35.62" x="0" y="1185" /><rect fill="#265b6a" height="16" width="26.72" x="0" y="1167" /><rect fill="#265b6a" height="15" width="53.44" x="0" y="1150" /><rect fill="#265b6a" height="15" width="35.62" x="0" y="1133" /><rect fill="#265b6a" height="15" width="8.904" x="0" y="1116" /><rect fill="#265b6a" height="15" width="115.8" x="0" y="1099" /><rect fill="#265b6a" height="15" width="71.28" x="0" y="1082" /><rect fill="#265b6a" height="15" width="44.54" x="0" y="1065" /><rect fill="#265b6a" height="16" width="8.904" x="0" y="1047" /><rect fill="#265b6a" height="15" width="8.904" x="0" y="1030" /><rect fill="#265b6a" height="15" width="80.16" x="0" y="1013" /><rect fill="#265b6a" height="15.1" width="53.44" x="0" y="995.9" /><rect fill="#265b6a" height="15.4" width="8.904" x="0" y="978.7" /><rect fill="#265b6a" height="15.4" width="53.44" x="0" y="961.5" /><rect fill="#265b6a" height="15.3" width="17.82" x="0" y="944.4" /><rect fill="#265b6a" height="15.3" width="89.04" x="0" y="927.3" /><rect fill="#265b6a" height="15.4" width="80.16" x="0" y="910.1" /><rect fill="#265b6a" height="15.4" width="62.34" x="0" y="892.9" /><rect fill="#265b6a" height="15.3" width="35.62" x="0" y="875.8" /><rect fill="#265b6a" height="15.3" width="8.904" x="0" y="858.7" /><rect fill="#265b6a" height="15.4" width="35.62" x="0" y="841.5" /><rect fill="#265b6a" height="15.4" width="35.62" x="0" y="824.3" /><rect fill="#265b6a" height="15.3" width="17.82" x="0" y="807.2" /><rect fill="#265b6a" height="15.3" width="17.82" x="0" y="790.1" /><rect fill="#265b6a" height="15.4" width="8.904" x="0" y="772.9" /><rect fill="#265b6a" height="15.4" width="53.44" x="0" y="755.7" /><rect fill="#265b6a" height="15.3" width="35.62" x="0" y="738.6" /><rect fill="#265b6a" height="15.3" width="35.62" x="0" y="721.5" /><rect fill="#265b6a" height="15.4" width="26.72" x="0" y="704.3" /><rect fill="#265b6a" height="15.4" width="26.72" x="0" y="687.1" /><rect fill="#265b6a" height="15.3" width="98.00" x="0" y="670.0" /><rect fill="#265b6a" height="15.3" width="35.62" x="0" y="652.9" /><rect fill="#265b6a" height="15.4" width="8.904" x="0" y="635.7" /><rect fill="#265b6a" height="15.4" width="8.904" x="0" y="618.5" /><rect fill="#265b6a" height="15.3" width="53.44" x="0" y="601.4" /><rect fill="#265b6a" height="15.3" width="17.82" x="0" y="584.3" /><rect fill="#265b6a" height="15.4" width="17.82" x="0" y="567.1" /><rect fill="#265b6a" height="15.4" width="8.904" x="0" y="549.9" /><rect fill="#265b6a" height="15.3" width="614.6" x="0" y="532.8" /><rect fill="#265b6a" height="15.3" width="160.3" x="0" y="515.7" /><rect fill="#265b6a" height="15.4" width="106.9" x="0" y="498.5" /><rect fill="#265b6a" height="15.4" width="17.82" x="0" y="481.3" /><rect fill="#265b6a" height="15.3" width="8.904" x="0" y="464.2" /><rect fill="#265b6a" height="15.5" width="302.8" x="0" y="446.9" /><rect fill="#265b6a" height="15.2" width="71.28" x="0" y="429.9" /><rect fill="#265b6a" height="15.2" width="35.62" x="0" y="412.9" /><rect fill="#265b6a" height="15.2" width="8.904" x="0" y="395.9" /><rect fill="#265b6a" height="15.2" width="44.54" x="0" y="378.9" /><rect fill="#265b6a" height="16.2" width="35.62" x="0" y="360.9" /><rect fill="#265b6a" height="15.2" width="26.72" x="0" y="343.9" /><rect fill="#265b6a" height="15.2" width="26.72" x="0" y="326.9" /><rect fill="#265b6a" height="15.2" width="8.904" x="0" y="309.9" /><rect fill="#265b6a" height="15.2" width="142.5" x="0" y="292.9" /><rect fill="#265b6a" height="15.2" width="44.54" x="0" y="275.9" /><rect fill="#265b6a" height="15.2" width="35.62" x="0" y="258.9" /><rect fill="#265b6a" height="16.2" width="258.3" x="0" y="240.9" /><rect fill="#265b6a" height="15.2" width="106.9" x="0" y="223.9" /><rect fill="#265b6a" height="15.2" width="62.34" x="0" y="206.9" /><rect fill="#265b6a" height="15.2" width="8.904" x="0" y="189.9" /><rect fill="#265b6a" height="15.2" width="8.904" x="0" y="172.9" /><rect fill="#265b6a" height="15.2" width="44.54" x="0" y="155.9" /><rect fill="#265b6a" height="16.2" width="44.54" x="0" y="137.9" /><rect fill="#265b6a" height="15.2" width="35.62" x="0" y="120.9" /><rect fill="#265b6a" height="15.2" width="26.72" x="0" y="103.9" /><rect fill="#265b6a" height="15.24" width="89.04" x="0" y="86.86" /><rect fill="#265b6a" height="15.28" width="53.44" x="0" y="69.86" /><rect fill="#265b6a" height="15.28" width="26.72" x="0" y="52.86" /><rect fill="#265b6a" height="15.28" width="26.72" x="0" y="35.86" /><rect fill="#265b6a" height="16.28" width="17.82" x="0" y="17.86" /><rect fill="#265b6a" height="15.28" width="17.82" x="0" y="0.8575" /></g></g></g></g></g></g></svg>